<svg width="24" height="24" viewBox="0 0 24 24" fill="none" xmlns="http://www.w3.org/2000/svg">
<path d="M16 8.5V13C16 13.8949 16.5 14.6914 17 15C17.5 15.3086 17.8406 15.5312 18.5625 15.5312C19.45 15.5312 19.7372 15.3878 20.1562 14.9688C20.5753 14.5497 21 13.6155 21 12.8994V11.9994C20.9999 9.96816 20.3126 7.99667 19.0499 6.40552C17.7873 4.81437 16.0235 3.69714 14.0454 3.23551C12.0673 2.77387 9.99115 2.99498 8.15462 3.86287C6.31809 4.73076 4.82917 6.1944 3.92994 8.01579C3.03071 9.83718 2.77408 11.9092 3.20176 13.8949C3.62944 15.8807 4.71629 17.6633 6.28557 18.9531C7.85486 20.2428 9.81429 20.9637 11.8453 20.9987C13.8762 21.0336 15.8593 20.3804 17.472 19.1454M16 12C16 14.2091 14.2091 16 12 16C9.79086 16 8 14.2091 8 12C8 9.79086 9.79086 8 12 8C14.2091 8 16 9.79086 16 12Z" stroke="black" stroke-width="2" stroke-linecap="round" stroke-linejoin="round"/>
</svg>
