<svg width="24" height="24" viewBox="0 0 24 24" fill="none" xmlns="http://www.w3.org/2000/svg">
<path d="M19.364 4.636C19.7389 5.01106 19.9496 5.51967 19.9496 6.05C19.9496 6.58033 19.7389 7.08894 19.364 7.464C19.7923 8.66013 19.8869 9.95028 19.6378 11.1961C19.3887 12.442 18.8053 13.5965 17.95 14.536L15.828 16.656C15.4415 17.1489 15.1762 17.7256 15.0534 18.3398C14.9306 18.954 14.9538 19.5884 15.121 20.192L3.80798 8.88C4.41143 9.04705 5.04566 9.07011 5.65965 8.94731C6.27363 8.82452 6.85021 8.5593 7.34298 8.173L9.46398 6.05C10.4035 5.19472 11.558 4.61125 12.8039 4.36215C14.0497 4.11305 15.3398 4.20772 16.536 4.636C16.911 4.26106 17.4197 4.05043 17.95 4.05043C18.4803 4.05043 18.9889 4.26106 19.364 4.636V4.636Z" stroke="black" stroke-width="2" stroke-linecap="round" stroke-linejoin="round"/>
<path d="M7.34296 12.414L6.63596 13.121C6.0733 13.6837 5.7572 14.4468 5.7572 15.2425C5.7572 16.0382 6.0733 16.8013 6.63596 17.364C7.19861 17.9267 7.96174 18.2428 8.75746 18.2428C9.55317 18.2428 10.3163 17.9267 10.879 17.364L11.586 16.657" stroke="black" stroke-width="2" stroke-linecap="round" stroke-linejoin="round"/>
</svg>
