<svg width="16" height="16" viewBox="0 0 16 16" fill="none" xmlns="http://www.w3.org/2000/svg">
<path d="M4 10H14" stroke="black" stroke-width="1.5" stroke-linecap="round" stroke-linejoin="round"/>
<path d="M14 12.6667H4" stroke="black" stroke-width="1.5" stroke-linecap="round" stroke-linejoin="round"/>
<path d="M10 7.33334H14" stroke="black" stroke-width="1.5" stroke-linecap="round" stroke-linejoin="round"/>
<path d="M14 4.66666H10" stroke="black" stroke-width="1.5" stroke-linecap="round" stroke-linejoin="round"/>
<path d="M6 6H6.66667C6.79852 6 6.92741 6.0391 7.03705 6.11235C7.14668 6.18561 7.23213 6.28972 7.28259 6.41154C7.33304 6.53336 7.34625 6.6674 7.32052 6.79672C7.2948 6.92605 7.23131 7.04483 7.13807 7.13807C7.04484 7.2313 6.92605 7.2948 6.79673 7.32052C6.66741 7.34624 6.53336 7.33304 6.41154 7.28258C6.28973 7.23213 6.18561 7.14668 6.11235 7.03704C6.0391 6.92741 6 6.79852 6 6.66666V5C6 4.64638 6.14048 4.30724 6.39052 4.05719C6.64057 3.80714 6.97971 3.66666 7.33333 3.66666" stroke="black" stroke-width="1.5" stroke-linecap="round" stroke-linejoin="round"/>
<path d="M2 6H2.66667C2.79852 6 2.92741 6.0391 3.03705 6.11235C3.14668 6.18561 3.23213 6.28972 3.28259 6.41154C3.33304 6.53336 3.34625 6.6674 3.32052 6.79672C3.2948 6.92605 3.23131 7.04483 3.13807 7.13807C3.04484 7.2313 2.92605 7.2948 2.79673 7.32052C2.66741 7.34624 2.53336 7.33304 2.41154 7.28258C2.28973 7.23213 2.18561 7.14668 2.11235 7.03704C2.0391 6.92741 2 6.79852 2 6.66666V5C2 4.64638 2.14048 4.30724 2.39052 4.05719C2.64057 3.80714 2.97971 3.66666 3.33333 3.66666" stroke="black" stroke-width="1.5" stroke-linecap="round" stroke-linejoin="round"/>
</svg>
