<svg width="24" height="24" viewBox="0 0 24 24" fill="none" xmlns="http://www.w3.org/2000/svg">
<path d="M6 15H21" stroke="black" stroke-width="2" stroke-linecap="round" stroke-linejoin="round"/>
<path d="M21 19H6" stroke="black" stroke-width="2" stroke-linecap="round" stroke-linejoin="round"/>
<path d="M15 11H21" stroke="black" stroke-width="2" stroke-linecap="round" stroke-linejoin="round"/>
<path d="M21 7H15" stroke="black" stroke-width="2" stroke-linecap="round" stroke-linejoin="round"/>
<path d="M9 9H10C10.1978 9 10.3911 9.05865 10.5556 9.16853C10.72 9.27841 10.8482 9.43459 10.9239 9.61732C10.9996 9.80004 11.0194 10.0011 10.9808 10.1951C10.9422 10.3891 10.847 10.5673 10.7071 10.7071C10.5673 10.847 10.3891 10.9422 10.1951 10.9808C10.0011 11.0194 9.80004 10.9996 9.61732 10.9239C9.43459 10.8482 9.27841 10.72 9.16853 10.5556C9.05865 10.3911 9 10.1978 9 10V7.5C9 6.96957 9.21071 6.46086 9.58579 6.08579C9.96086 5.71071 10.4696 5.5 11 5.5" stroke="black" stroke-width="2" stroke-linecap="round" stroke-linejoin="round"/>
<path d="M3 9H4C4.19778 9 4.39112 9.05865 4.55557 9.16853C4.72002 9.27841 4.84819 9.43459 4.92388 9.61732C4.99957 9.80004 5.01937 10.0011 4.98079 10.1951C4.9422 10.3891 4.84696 10.5673 4.70711 10.7071C4.56725 10.847 4.38907 10.9422 4.19509 10.9808C4.00111 11.0194 3.80004 10.9996 3.61732 10.9239C3.43459 10.8482 3.27841 10.72 3.16853 10.5556C3.05865 10.3911 3 10.1978 3 10V7.5C3 6.96957 3.21071 6.46086 3.58579 6.08579C3.96086 5.71071 4.46957 5.5 5 5.5" stroke="black" stroke-width="2" stroke-linecap="round" stroke-linejoin="round"/>
</svg>
