<svg width="24" height="24" viewBox="0 0 24 24" fill="none" xmlns="http://www.w3.org/2000/svg">
<path d="M13 7C13.5304 7 14.0391 7.21071 14.4142 7.58579C14.7893 7.96086 15 8.46957 15 9V21L10 18L5 21V9C5 8.46957 5.21071 7.96086 5.58579 7.58579C5.96086 7.21071 6.46957 7 7 7H13Z" stroke="black" stroke-width="2" stroke-linecap="round" stroke-linejoin="round"/>
<path d="M9.26501 4C9.4408 3.69553 9.69374 3.44278 9.99834 3.26721C10.3029 3.09165 10.6484 2.99948 11 3H17C17.5304 3 18.0392 3.21072 18.4142 3.58579C18.7893 3.96086 19 4.46957 19 5V17L18 16.4" stroke="black" stroke-width="2" stroke-linecap="round" stroke-linejoin="round"/>
</svg>
