<svg width="24" height="24" viewBox="0 0 24 24" fill="none" xmlns="http://www.w3.org/2000/svg">
<path d="M5 7H6C6.53043 7 7.03914 6.78929 7.41421 6.41421C7.78929 6.03914 8 5.53043 8 5C8 4.73478 8.10536 4.48043 8.29289 4.29289C8.48043 4.10536 8.73478 4 9 4H15C15.2652 4 15.5196 4.10536 15.7071 4.29289C15.8946 4.48043 16 4.73478 16 5C16 5.53043 16.2107 6.03914 16.5858 6.41421C16.9609 6.78929 17.4696 7 18 7H19C19.5304 7 20.0391 7.21071 20.4142 7.58579C20.7893 7.96086 21 8.46957 21 9V18C21 18.5304 20.7893 19.0391 20.4142 19.4142C20.0391 19.7893 19.5304 20 19 20H5C4.46957 20 3.96086 19.7893 3.58579 19.4142C3.21071 19.0391 3 18.5304 3 18V9C3 8.46957 3.21071 7.96086 3.58579 7.58579C3.96086 7.21071 4.46957 7 5 7" stroke="black" stroke-width="2" stroke-linecap="round" stroke-linejoin="round"/>
<path d="M12 16C13.6569 16 15 14.6569 15 13C15 11.3431 13.6569 10 12 10C10.3431 10 9 11.3431 9 13C9 14.6569 10.3431 16 12 16Z" stroke="black" stroke-width="2" stroke-linecap="round" stroke-linejoin="round"/>
</svg>
