<svg width="16" height="16" viewBox="0 0 16 16" fill="none" xmlns="http://www.w3.org/2000/svg">
<path fill-rule="evenodd" clip-rule="evenodd" d="M14 8C14 11.3137 11.3137 14 8 14C4.68629 14 2 11.3137 2 8C2 4.68629 4.68629 2 8 2C11.3137 2 14 4.68629 14 8ZM6.08337 8C6.08337 7.58579 5.74759 7.25 5.33337 7.25C4.91916 7.25 4.58337 7.58579 4.58337 8V8.00667C4.58337 8.42088 4.91916 8.75667 5.33337 8.75667C5.74759 8.75667 6.08337 8.42088 6.08337 8.00667V8ZM8 7.25C8.41421 7.25 8.75 7.58579 8.75 8V8.00667C8.75 8.42088 8.41421 8.75667 8 8.75667C7.58579 8.75667 7.25 8.42088 7.25 8.00667V8C7.25 7.58579 7.58579 7.25 8 7.25ZM11.4166 8C11.4166 7.58579 11.0808 7.25 10.6666 7.25C10.2524 7.25 9.91663 7.58579 9.91663 8V8.00667C9.91663 8.42088 10.2524 8.75667 10.6666 8.75667C11.0808 8.75667 11.4166 8.42088 11.4166 8.00667V8Z" fill="black"/>
</svg>
