<svg width="24" height="24" viewBox="0 0 24 24" fill="none" xmlns="http://www.w3.org/2000/svg">
<path fill-rule="evenodd" clip-rule="evenodd" d="M6 3C5.20435 3 4.44129 3.31607 3.87868 3.87868C3.31607 4.44129 3 5.20435 3 6V18C3 18.7956 3.31607 19.5587 3.87868 20.1213C4.44129 20.6839 5.20435 21 6 21H13C13.2652 21 13.5196 20.8946 13.7071 20.7071L20.7071 13.7071C20.8946 13.5196 21 13.2652 21 13V6C21 5.20435 20.6839 4.44129 20.1213 3.87868C19.5587 3.31607 18.7956 3 18 3H6ZM5.29289 5.29289C5.48043 5.10536 5.73478 5 6 5H18C18.2652 5 18.5196 5.10536 18.7071 5.29289C18.8946 5.48043 19 5.73478 19 6V12H14.5377C14.3871 12.1969 14.2185 12.3888 14.0358 12.5807C14.3462 12.6516 14.6559 12.7995 14.919 13.0549C15.2026 13.3303 15.3635 13.6643 15.4334 14H17.5858L14 17.5858V16.2551C13.8546 16.2859 13.7084 16.3002 13.5654 16.3002H12V19H6C5.73478 19 5.48043 18.8946 5.29289 18.7071C5.10536 18.5196 5 18.2652 5 18V6C5 5.73478 5.10536 5.48043 5.29289 5.29289Z" fill="black"/>
<path d="M9.66406 15H13.5654C13.9463 15 14.1758 14.7607 14.1758 14.4141C14.1758 14.0576 13.9463 13.8281 13.5654 13.8281H10.9092V13.7988L12.4326 12.334C13.585 11.2451 14.0049 10.708 14.0049 9.84863C14.0049 8.6377 12.999 7.79785 11.5049 7.79785C10.1719 7.79785 9.28809 8.52539 9.04883 9.30664C9.01465 9.40918 8.99512 9.51172 8.99512 9.62402C8.99512 9.99023 9.22949 10.2246 9.625 10.2246C9.94238 10.2246 10.1133 10.0879 10.2793 9.79492C10.5332 9.22852 10.9238 8.94531 11.4902 8.94531C12.1201 8.94531 12.5693 9.36035 12.5693 9.94141C12.5693 10.4492 12.3447 10.791 11.4756 11.626L9.37598 13.6328C9.07812 13.9062 8.9707 14.0918 8.9707 14.3701C8.9707 14.7412 9.2002 15 9.66406 15Z" fill="black"/>
</svg>
