<svg width="24" height="24" viewBox="0 0 24 24" fill="none" xmlns="http://www.w3.org/2000/svg">
<path fill-rule="evenodd" clip-rule="evenodd" d="M6 3C5.20435 3 4.44129 3.31607 3.87868 3.87868C3.31607 4.44129 3 5.20435 3 6V18C3 18.7956 3.31607 19.5587 3.87868 20.1213C4.44129 20.6839 5.20435 21 6 21H13C13.2652 21 13.5196 20.8946 13.7071 20.7071L20.7071 13.7071C20.8946 13.5196 21 13.2652 21 13V6C21 5.20435 20.6839 4.44129 20.1213 3.87868C19.5587 3.31607 18.7956 3 18 3H6ZM5.29289 5.29289C5.48043 5.10536 5.73478 5 6 5H18C18.2652 5 18.5196 5.10536 18.7071 5.29289C18.8946 5.48043 19 5.73478 19 6V12H14.1134V14H17.5858L14 17.5858V15.0633C13.9074 15.3357 13.7556 15.5941 13.5362 15.8156C13.133 16.2226 12.6026 16.4027 12.0859 16.4027C12.0573 16.4027 12.0287 16.4022 12 16.4011V19H6C5.73478 19 5.48043 18.8946 5.29289 18.7071C5.10536 18.5196 5 18.2652 5 18V6C5 5.73478 5.10536 5.48043 5.29289 5.29289Z" fill="black"/>
<path d="M12.0859 15.1025C12.5205 15.1025 12.8135 14.8096 12.8135 14.3652V8.67188C12.8135 8.16406 12.501 7.84668 11.9785 7.84668C11.6758 7.84668 11.4414 7.89062 11.0996 8.125L9.70312 9.0918C9.47363 9.25293 9.38574 9.41895 9.38574 9.64355C9.38574 9.95605 9.60547 10.1709 9.90332 10.1709C10.0547 10.1709 10.1572 10.1367 10.2939 10.0391L11.3242 9.32129H11.3535V14.3652C11.3535 14.8096 11.6514 15.1025 12.0859 15.1025Z" fill="black"/>
</svg>
