<svg width="24" height="24" viewBox="0 0 24 24" fill="none" xmlns="http://www.w3.org/2000/svg">
<path d="M13 20L20 13M13 20V15C13 14.7348 13.1054 14.4804 13.2929 14.2929C13.4804 14.1054 13.7348 14 14 14H19L20 13M13 20H6C5.46957 20 4.96086 19.7893 4.58579 19.4142C4.21071 19.0391 4 18.5304 4 18V6C4 5.46957 4.21071 4.96086 4.58579 4.58579C4.96086 4.21071 5.46957 4 6 4H18C18.5304 4 19.0391 4.21071 19.4142 4.58579C19.7893 4.96086 20 5.46957 20 6V13" stroke="black" stroke-width="2" stroke-linecap="round" stroke-linejoin="round"/>
<circle cx="8" cy="11" r="1" fill="black"/>
<circle cx="12" cy="11" r="1" fill="black"/>
<circle cx="16" cy="11" r="1" fill="black"/>
</svg>
