<svg width="24" height="24" viewBox="0 0 24 24" fill="none" xmlns="http://www.w3.org/2000/svg">
<path fill-rule="evenodd" clip-rule="evenodd" d="M6 3C5.20435 3 4.44129 3.31607 3.87868 3.87868C3.31607 4.44129 3 5.20435 3 6V18C3 18.7956 3.31607 19.5587 3.87868 20.1213C4.44129 20.6839 5.20435 21 6 21H13C13.2652 21 13.5196 20.8946 13.7071 20.7071L20.7071 13.7071C20.8946 13.5196 21 13.2652 21 13V6C21 5.20435 20.6839 4.44129 20.1213 3.87868C19.5587 3.31607 18.7956 3 18 3H6ZM5.29289 5.29289C5.48043 5.10536 5.73478 5 6 5H18C18.2652 5 18.5196 5.10536 18.7071 5.29289C18.8946 5.48043 19 5.73478 19 6V12H15.5826C15.6187 12.2142 15.6369 12.4337 15.6369 12.6564C15.6369 13.1411 15.5541 13.5914 15.4029 14H17.5858L14 17.5858V15.7613C13.4266 16.1436 12.7395 16.3807 12 16.4411V19H6C5.73478 19 5.48043 18.8946 5.29289 18.7071C5.10536 18.5196 5 18.2652 5 18V6C5 5.73478 5.10536 5.48043 5.29289 5.29289Z" fill="black"/>
<path d="M11.6221 15.1562C13.1943 15.1562 14.3369 14.1162 14.3369 12.6562C14.3369 11.333 13.4043 10.3613 12.042 10.3613C11.0898 10.3613 10.3965 10.8398 10.123 11.4941H10.0938V11.4209C10.1035 9.91699 10.6162 8.95996 11.6221 8.95996C12.1055 8.95996 12.4473 9.14062 12.7695 9.5459C12.9844 9.79492 13.1602 9.92188 13.4531 9.92188C13.8389 9.92188 14.0684 9.66797 14.0684 9.34082C14.0684 9.20898 14.0342 9.08203 13.9658 8.94531C13.6338 8.28613 12.7939 7.79297 11.627 7.79297C9.7959 7.79297 8.68262 9.19922 8.68262 11.5332C8.68262 12.3535 8.8291 13.0518 9.09766 13.5986C9.61523 14.6338 10.5039 15.1562 11.6221 15.1562ZM11.6025 13.9844C10.8799 13.9844 10.3135 13.418 10.3135 12.6904C10.3135 11.9727 10.8701 11.4502 11.6172 11.4502C12.3594 11.4502 12.9014 11.9775 12.9014 12.7197C12.8965 13.4277 12.3252 13.9844 11.6025 13.9844Z" fill="black"/>
</svg>
