<svg width="24" height="24" viewBox="0 0 24 24" fill="none" xmlns="http://www.w3.org/2000/svg">
<path fill-rule="evenodd" clip-rule="evenodd" d="M6 3C5.20435 3 4.44129 3.31607 3.87868 3.87868C3.31607 4.44129 3 5.20435 3 6V18C3 18.7956 3.31607 19.5587 3.87868 20.1213C4.44129 20.6839 5.20435 21 6 21H13C13.2652 21 13.5196 20.8946 13.7071 20.7071L20.7071 13.7071C20.8946 13.5196 21 13.2652 21 13V6C21 5.20435 20.6839 4.44129 20.1213 3.87868C19.5587 3.31607 18.7956 3 18 3H6ZM5.29289 5.29289C5.48043 5.10536 5.73478 5 6 5H18C18.2652 5 18.5196 5.10536 18.7071 5.29289C18.8946 5.48043 19 5.73478 19 6V12H15.48C15.7313 12.352 15.8273 12.7561 15.8273 13.1203C15.8273 13.4068 15.7675 13.7138 15.6232 14H17.5858L14 17.5858V16.041C13.6294 16.3024 13.2039 16.4027 12.8183 16.4027C12.5542 16.4027 12.2712 16.3556 12 16.2415V19H6C5.73478 19 5.48043 18.8946 5.29289 18.7071C5.10536 18.5196 5 18.2652 5 18V6C5 5.73478 5.10536 5.48043 5.29289 5.29289Z" fill="black"/>
<path d="M12.8184 15.1025C13.2236 15.1025 13.5215 14.8535 13.5215 14.3848V13.7061H13.9219C14.3076 13.7061 14.5273 13.4668 14.5273 13.1201C14.5273 12.7734 14.3125 12.5293 13.9219 12.5293H13.5215V8.91113C13.5215 8.25195 13.0527 7.84668 12.3057 7.84668C11.71 7.84668 11.3535 8.09082 10.8652 8.83789C10.0986 9.97559 9.39551 11.0498 8.91211 11.9189C8.69238 12.3047 8.60449 12.5781 8.60449 12.8809C8.60449 13.374 8.96094 13.7061 9.49316 13.7061H12.1201V14.3848C12.1201 14.8535 12.4131 15.1025 12.8184 15.1025ZM12.1494 12.5684H9.89355V12.5293C10.4648 11.4648 11.1143 10.4736 12.1201 9.02344H12.1494V12.5684Z" fill="black"/>
</svg>
