<svg width="24" height="24" viewBox="0 0 24 24" fill="none" xmlns="http://www.w3.org/2000/svg">
<path fill-rule="evenodd" clip-rule="evenodd" d="M6 3C5.20435 3 4.44129 3.31607 3.87868 3.87868C3.31607 4.44129 3 5.20435 3 6V18C3 18.7956 3.31607 19.5587 3.87868 20.1213C4.44129 20.6839 5.20435 21 6 21H13C13.2652 21 13.5196 20.8946 13.7071 20.7071L20.7071 13.7071C20.8946 13.5196 21 13.2652 21 13V6C21 5.20435 20.6839 4.44129 20.1213 3.87868C19.5587 3.31607 18.7956 3 18 3H6ZM5.29289 5.29289C5.48043 5.10536 5.73478 5 6 5H18C18.2652 5 18.5196 5.10536 18.7071 5.29289C18.8946 5.48043 19 5.73478 19 6V12H14.4871L12.7941 15.2688L12.7936 15.2699C12.6578 15.5329 12.4426 15.8565 12.0771 16.0945C12.0514 16.1112 12.0257 16.127 12 16.142V19H6C5.73478 19 5.48043 18.8946 5.29289 18.7071C5.10536 18.5196 5 18.2652 5 18V6C5 5.73478 5.10536 5.48043 5.29289 5.29289ZM14 14H17.5858L14 17.5858V14Z" fill="black"/>
<path d="M10.9795 15.1025C11.2969 15.1025 11.4775 14.9854 11.6387 14.6729L14.251 9.62891C14.4414 9.25781 14.5293 9.02344 14.5293 8.75977C14.5293 8.25684 14.1631 7.9541 13.6504 7.9541H10.0029C9.65137 7.9541 9.39258 8.18359 9.39258 8.53516C9.39258 8.8916 9.65137 9.12598 10.0029 9.12598H13.04V9.15527L10.4326 14.0381C10.3447 14.1992 10.3057 14.3311 10.3057 14.502C10.3057 14.8438 10.5645 15.1025 10.9795 15.1025Z" fill="black"/>
</svg>
