<svg width="24" height="24" viewBox="0 0 24 24" fill="none" xmlns="http://www.w3.org/2000/svg">
<path fill-rule="evenodd" clip-rule="evenodd" d="M6 3C5.20435 3 4.44129 3.31607 3.87868 3.87868C3.31607 4.44129 3 5.20435 3 6V18C3 18.7956 3.31607 19.5587 3.87868 20.1213C4.44129 20.6839 5.20435 21 6 21H13C13.2652 21 13.5196 20.8946 13.7071 20.7071L20.7071 13.7071C20.8946 13.5196 21 13.2652 21 13V6C21 5.20435 20.6839 4.44129 20.1213 3.87868C19.5587 3.31607 18.7956 3 18 3H6ZM5.29289 5.29289C5.48043 5.10536 5.73478 5 6 5H18C18.2652 5 18.5196 5.10536 18.7071 5.29289C18.8946 5.48043 19 5.73478 19 6V12H15.4591C15.5858 12.3309 15.6565 12.6973 15.6565 13.0959C15.6565 13.4148 15.6094 13.7173 15.5223 14H17.5858L14 17.5858V15.844C13.4117 16.1837 12.7238 16.3763 12 16.4361V19H6C5.73478 19 5.48043 18.8946 5.29289 18.7071C5.10536 18.5196 5 18.2652 5 18V6C5 5.73478 5.10536 5.48043 5.29289 5.29289Z" fill="black"/>
<path d="M11.5 15.1562C13.1797 15.1562 14.3564 14.3164 14.3564 13.0957C14.3564 12.168 13.6777 11.4844 12.7158 11.2939V11.2646C13.541 11.0547 14.0977 10.4541 14.0977 9.69727C14.0977 8.59375 13.0283 7.79785 11.5 7.79785C9.97168 7.79785 8.89746 8.59863 8.89746 9.69238C8.89746 10.459 9.45898 11.0596 10.2891 11.2646V11.2939C9.32715 11.4795 8.64355 12.1631 8.64355 13.0908C8.64355 14.3115 9.81543 15.1562 11.5 15.1562ZM11.5 10.8203C10.8311 10.8203 10.3574 10.4199 10.3574 9.84375C10.3574 9.2627 10.8311 8.8623 11.5 8.8623C12.1641 8.8623 12.6426 9.2627 12.6426 9.84375C12.6426 10.4199 12.1641 10.8203 11.5 10.8203ZM11.5 14.082C10.7236 14.082 10.1816 13.623 10.1816 12.9834C10.1816 12.3486 10.7236 11.8945 11.5 11.8945C12.2764 11.8945 12.8135 12.3486 12.8135 12.9834C12.8135 13.623 12.2764 14.082 11.5 14.082Z" fill="black"/>
</svg>
