<svg width="24" height="24" viewBox="0 0 24 24" fill="none" xmlns="http://www.w3.org/2000/svg">
<path fill-rule="evenodd" clip-rule="evenodd" d="M6 3C5.20435 3 4.44129 3.31607 3.87868 3.87868C3.31607 4.44129 3 5.20435 3 6V18C3 18.7956 3.31607 19.5587 3.87868 20.1213C4.44129 20.6839 5.20435 21 6 21H13C13.2652 21 13.5196 20.8946 13.7071 20.7071L20.7071 13.7071C20.8946 13.5196 21 13.2652 21 13V6C21 5.20435 20.6839 4.44129 20.1213 3.87868C19.5587 3.31607 18.7956 3 18 3H6ZM5.29289 5.29289C5.48043 5.10536 5.73478 5 6 5H18C18.2652 5 18.5196 5.10536 18.7071 5.29289C18.8946 5.48043 19 5.73478 19 6V12H15.5517C15.5855 12.2075 15.6027 12.4204 15.6027 12.6369C15.6027 13.1167 15.5226 13.576 15.3677 14H17.5858L14 17.5858V15.7527C13.4185 16.1482 12.7308 16.3758 12 16.4385V19H6C5.73478 19 5.48043 18.8946 5.29289 18.7071C5.10536 18.5196 5 18.2652 5 18V6C5 5.73478 5.10536 5.48043 5.29289 5.29289Z" fill="black"/>
<path d="M11.5781 15.1562C13.1846 15.1562 14.3027 14.1406 14.3027 12.6367C14.3027 11.2939 13.3457 10.3467 11.998 10.3467C11.2803 10.3467 10.7041 10.6299 10.416 11.084H10.3867L10.5527 9.12598H13.3359C13.707 9.12598 13.9414 8.89648 13.9414 8.54004C13.9414 8.18359 13.7021 7.9541 13.3359 7.9541H10.2451C9.67383 7.9541 9.36621 8.19336 9.31738 8.78906L9.1123 11.3721C9.10742 11.3965 9.10742 11.4111 9.10742 11.4307C9.08789 11.8262 9.31738 12.1631 9.80078 12.1631C10.1279 12.1631 10.2744 12.0898 10.5625 11.8213C10.8115 11.582 11.1631 11.4014 11.583 11.4014C12.3496 11.4014 12.8965 11.9287 12.8965 12.6709C12.8965 13.4326 12.3447 13.9844 11.5781 13.9844C10.9434 13.9844 10.5283 13.6768 10.2744 13.1689C10.1084 12.9053 9.92285 12.8027 9.62988 12.8027C9.24902 12.8027 9.01465 13.0273 9.01465 13.4033C9.01465 13.5791 9.05859 13.7305 9.13184 13.8867C9.4834 14.6338 10.46 15.1562 11.5781 15.1562Z" fill="black"/>
</svg>
