<svg width="24" height="24" viewBox="0 0 24 24" fill="none" xmlns="http://www.w3.org/2000/svg">
<path fill-rule="evenodd" clip-rule="evenodd" d="M6 3C5.20435 3 4.44129 3.31607 3.87868 3.87868C3.31607 4.44129 3 5.20435 3 6V18C3 18.7956 3.31607 19.5587 3.87868 20.1213C4.44129 20.6839 5.20435 21 6 21H13C13.2652 21 13.5196 20.8946 13.7071 20.7071L20.7071 13.7071C20.8946 13.5196 21 13.2652 21 13V6C21 5.20435 20.6839 4.44129 20.1213 3.87868C19.5587 3.31607 18.7956 3 18 3H6ZM5.29289 5.29289C5.48043 5.10536 5.73478 5 6 5H18C18.2652 5 18.5196 5.10536 18.7071 5.29289C18.8946 5.48043 19 5.73478 19 6V12H15.5919C15.5401 12.7168 15.3893 13.3945 15.1224 14H17.5858L14 17.5858V15.5278C13.4346 16.0051 12.7526 16.2999 12 16.4088V19H6C5.73478 19 5.48043 18.8946 5.29289 18.7071C5.10536 18.5196 5 18.2652 5 18V6C5 5.73478 5.10536 5.48043 5.29289 5.29289Z" fill="black"/>
<path d="M11.3242 15.1562C13.1943 15.1562 14.3125 13.7598 14.3125 11.416C14.3125 10.5908 14.166 9.89258 13.8975 9.35059C13.3848 8.31543 12.4961 7.79297 11.373 7.79297C9.80078 7.79297 8.6582 8.83301 8.6582 10.293C8.6582 11.665 9.69336 12.5928 10.9971 12.5928C11.9248 12.5928 12.6182 12.1289 12.8721 11.4502H12.9014V11.5283C12.8965 12.998 12.418 13.9893 11.3779 13.9893C10.8457 13.9893 10.5332 13.7988 10.2061 13.4033C9.98633 13.1592 9.82031 13.0273 9.52246 13.0273C9.13184 13.0273 8.91211 13.2764 8.91211 13.6035C8.91211 13.7305 8.94141 13.8525 9.00977 13.9893C9.30273 14.6191 10.1572 15.1562 11.3242 15.1562ZM11.3779 11.499C10.6406 11.499 10.0938 10.9717 10.0938 10.2344C10.0938 9.52148 10.665 8.96973 11.3926 8.96973C12.1201 8.96973 12.6865 9.53125 12.6865 10.2588C12.6865 10.9766 12.125 11.499 11.3779 11.499Z" fill="black"/>
</svg>
