<svg width="24" height="24" viewBox="0 0 24 24" fill="none" xmlns="http://www.w3.org/2000/svg">
<path fill-rule="evenodd" clip-rule="evenodd" d="M6 3C5.20435 3 4.44129 3.31607 3.87868 3.87868C3.31607 4.44129 3 5.20435 3 6V18C3 18.7956 3.31607 19.5587 3.87868 20.1213C4.44129 20.6839 5.20435 21 6 21H13C13.2652 21 13.5196 20.8946 13.7071 20.7071L20.7071 13.7071C20.8946 13.5196 21 13.2652 21 13V6C21 5.20435 20.6839 4.44129 20.1213 3.87868C19.5587 3.31607 18.7956 3 18 3H6ZM5.29289 5.29289C5.48043 5.10536 5.73478 5 6 5H18C18.2652 5 18.5196 5.10536 18.7071 5.29289C18.8946 5.48043 19 5.73478 19 6V12H15.338C15.4524 12.3226 15.5099 12.6689 15.5099 13.0275C15.5099 13.3688 15.4603 13.6946 15.3665 14H17.5858L14 17.5858V15.7746C13.4176 16.1515 12.728 16.3635 12 16.4318V19H6C5.73478 19 5.48043 18.8946 5.29289 18.7071C5.10536 18.5196 5 18.2652 5 18V6C5 5.73478 5.10536 5.48043 5.29289 5.29289Z" fill="black"/>
<path d="M11.4658 15.1562C13.1016 15.1562 14.21 14.3066 14.21 13.0273C14.21 12.0557 13.5312 11.4404 12.4814 11.3428V11.3135C13.3115 11.1426 13.9512 10.5566 13.9512 9.66309C13.9512 8.53516 12.9453 7.79785 11.4561 7.79785C10.2109 7.79785 9.41016 8.37402 9.09766 9.0625C9.02441 9.22852 8.99023 9.37012 8.99023 9.53613C8.99023 9.89258 9.2002 10.1318 9.61035 10.1318C9.94238 10.1318 10.1133 10.0098 10.2744 9.67773C10.5039 9.17969 10.8652 8.93066 11.4609 8.93066C12.1738 8.93066 12.5547 9.30664 12.5547 9.87305C12.5547 10.4492 12.0762 10.8496 11.3389 10.8496H11.0508C10.6943 10.8496 10.4893 11.0645 10.4893 11.3721C10.4893 11.6895 10.6943 11.8994 11.0508 11.8994H11.3584C12.2129 11.8994 12.7158 12.2803 12.7109 12.9639C12.7109 13.5498 12.2129 13.9697 11.4902 13.9697C10.7578 13.9697 10.377 13.6768 10.1279 13.1836C9.98145 12.915 9.7959 12.7979 9.50293 12.7979C9.09766 12.7979 8.85352 13.0371 8.85352 13.418C8.85352 13.5645 8.8877 13.7207 8.96582 13.8818C9.29785 14.5752 10.123 15.1562 11.4658 15.1562Z" fill="black"/>
</svg>
