<svg width="24" height="24" viewBox="0 0 24 24" fill="none" xmlns="http://www.w3.org/2000/svg">
<path d="M3 3L21 21M10.584 10.587C10.2087 10.962 9.99778 11.4708 9.99759 12.0013C9.99741 12.5318 10.208 13.0407 10.583 13.416C10.958 13.7913 11.4668 14.0022 11.9973 14.0024C12.5278 14.0026 13.0367 13.792 13.412 13.417M9.363 5.365C10.2204 5.11972 11.1082 4.99684 12 5C16 5 19.333 7.333 22 12C21.222 13.361 20.388 14.524 19.497 15.488M17.357 17.349C15.726 18.449 13.942 19 12 19C8 19 4.667 16.667 2 12C3.369 9.605 4.913 7.825 6.632 6.659" stroke="black" stroke-width="2" stroke-linecap="round" stroke-linejoin="round"/>
</svg>
