<svg width="24" height="24" viewBox="0 0 24 24" fill="none" xmlns="http://www.w3.org/2000/svg">
<path d="M17.94 17.94C16.2306 19.243 14.1491 19.9649 12 20C5 20 1 12 1 12C2.24389 9.68189 3.96914 7.6566 6.06 6.05999M9.9 4.23999C10.5883 4.07887 11.2931 3.99833 12 3.99999C19 3.99999 23 12 23 12C22.393 13.1356 21.6691 14.2047 20.84 15.19M14.12 14.12C13.8454 14.4147 13.5141 14.6511 13.1462 14.8151C12.7782 14.9791 12.3809 15.0673 11.9781 15.0744C11.5753 15.0815 11.1752 15.0074 10.8016 14.8565C10.4281 14.7056 10.0887 14.481 9.80385 14.1961C9.51897 13.9113 9.29439 13.5719 9.14351 13.1984C8.99262 12.8248 8.91853 12.4247 8.92563 12.0219C8.93274 11.6191 9.02091 11.2218 9.18488 10.8538C9.34884 10.4858 9.58525 10.1546 9.88 9.87999" stroke="black" stroke-width="2" stroke-linecap="round" stroke-linejoin="round"/>
<path d="M3 3L21 21" stroke="black" stroke-width="2" stroke-linecap="round" stroke-linejoin="round"/>
</svg>
