<svg width="24" height="24" viewBox="0 0 24 24" fill="none" xmlns="http://www.w3.org/2000/svg">
<path d="M5.49999 5H18.5C18.644 5.05051 18.7745 5.13331 18.8816 5.24206C18.9887 5.35082 19.0695 5.48264 19.1177 5.62742C19.166 5.77221 19.1805 5.92612 19.1601 6.07737C19.1396 6.22861 19.0849 6.37318 19 6.5L14 12V19L9.99999 16V12L4.99999 6.5C4.91508 6.37318 4.86032 6.22861 4.83991 6.07737C4.81951 5.92612 4.83399 5.77221 4.88225 5.62742C4.93051 5.48264 5.01127 5.35082 5.11835 5.24206C5.22542 5.13331 5.35597 5.05051 5.49999 5Z" stroke="black" stroke-width="2" stroke-linecap="round" stroke-linejoin="round"/>
</svg>
