<svg width="24" height="24" viewBox="0 0 24 24" fill="none" xmlns="http://www.w3.org/2000/svg">
<path d="M12.0021 6.22967C10.7494 4.89101 8.89696 4.25413 7.06269 4.56682C5.02207 4.91469 3.34961 6.37888 2.73498 8.35559C2.12058 10.3316 2.66728 12.4851 4.14963 13.9288C4.15017 13.9293 4.15071 13.9298 4.15125 13.9304L11.6481 21.3553C11.8429 21.5482 12.1568 21.5483 12.3517 21.3554L19.8503 13.9347C19.8505 13.9345 19.8507 13.9343 19.8509 13.9341C21.3225 12.4883 21.8612 10.3405 21.2462 8.3713C20.6311 6.40181 18.9655 4.94224 16.9322 4.59112C15.1053 4.27562 13.2578 4.90276 12.0021 6.22967Z" fill="black" stroke="black" stroke-linecap="round" stroke-linejoin="round"/>
</svg>
