<?xml version="1.0" encoding="UTF-8" standalone="no"?><svg xmlns:android="http://schemas.android.com/apk/res/android" height="24" width="24" xmlns="http://www.w3.org/2000/svg">
  <path android:strokeLineCap="round" android:strokeLineJoin="round" d="M8.7,3H15.3C15.6,3 15.8,3.1 16,3.3L20.7,8C20.9,8.2 21,8.4 21,8.7V15.3C21,15.6 20.9,15.8 20.7,16L16,20.7C15.8,20.9 15.6,21 15.3,21H8.7C8.4,21 8.2,20.9 8,20.7L3.3,16C3.1,15.8 3,15.6 3,15.3V8.7C3,8.4 3.1,8.2 3.3,8L8,3.3C8.2,3.1 8.4,3 8.7,3V3Z" fill="#000000" fill-opacity="0.0" stroke="#000000" stroke-width="2"/>
  <path android:strokeLineCap="round" android:strokeLineJoin="round" d="M12,8V12" fill="#000000" fill-opacity="0.0" stroke="#000000" stroke-width="2"/>
  <path android:strokeLineCap="round" android:strokeLineJoin="round" d="M12,16H12.01" fill="#000000" fill-opacity="0.0" stroke="#000000" stroke-width="2"/>
</svg>