<?xml version="1.0" encoding="UTF-8" standalone="no"?><svg xmlns:android="http://schemas.android.com/apk/res/android" height="24" width="24" xmlns="http://www.w3.org/2000/svg">
  <path android:strokeLineCap="round" android:strokeLineJoin="round" d="M16,8.5V13C16,13.8949 16.5,14.6914 17,15C17.5,15.3086 17.8406,15.5312 18.5625,15.5312C19.45,15.5312 19.7372,15.3878 20.1562,14.9688C20.5753,14.5497 21,13.6155 21,12.8994V11.9994C20.9999,9.9682 20.3126,7.9967 19.0499,6.4055C17.7873,4.8144 16.0235,3.6971 14.0454,3.2355C12.0673,2.7739 9.9911,2.995 8.1546,3.8629C6.3181,4.7308 4.8292,6.1944 3.9299,8.0158C3.0307,9.8372 2.7741,11.9092 3.2018,13.8949C3.6294,15.8807 4.7163,17.6633 6.2856,18.9531C7.8549,20.2428 9.8143,20.9637 11.8453,20.9987C13.8762,21.0336 15.8593,20.3804 17.472,19.1454M16,12C16,14.2091 14.2091,16 12,16C9.7909,16 8,14.2091 8,12C8,9.7909 9.7909,8 12,8C14.2091,8 16,9.7909 16,12Z" fill="#000000" fill-opacity="0.0" stroke="#000000" stroke-width="2"/>
</svg>