<?xml version="1.0" encoding="UTF-8" standalone="no"?><svg xmlns:android="http://schemas.android.com/apk/res/android" height="24" width="24" xmlns="http://www.w3.org/2000/svg">
  <path android:strokeLineCap="round" android:strokeLineJoin="round" d="M12,15V15.01M12,9V11V9Z" fill="#000000" fill-opacity="0.0" stroke="#000000" stroke-width="2"/>
  <path android:strokeLineCap="round" android:strokeLineJoin="round" d="M4.9999,19H18.9999C19.3263,18.9977 19.647,18.9156 19.9343,18.7609C20.2216,18.6061 20.4667,18.3834 20.6482,18.1122C20.8296,17.841 20.942,17.5295 20.9754,17.2049C21.0088,16.8803 20.9623,16.5525 20.8399,16.25L13.7399,4C13.567,3.6874 13.3135,3.4268 13.0057,3.2454C12.6979,3.0639 12.3472,2.9683 11.9899,2.9683C11.6327,2.9683 11.2819,3.0639 10.9742,3.2454C10.6664,3.4268 10.4129,3.6874 10.2399,4L3.14,16.25C3.0199,16.5456 2.9723,16.8656 3.0011,17.1833C3.0299,17.501 3.1343,17.8073 3.3056,18.0764C3.4769,18.3456 3.7101,18.5698 3.9857,18.7305C4.2613,18.8912 4.5713,18.9836 4.8899,19" fill="#000000" fill-opacity="0.0" stroke="#000000" stroke-width="2"/>
</svg>