<?xml version="1.0" encoding="UTF-8" standalone="no"?><svg xmlns:android="http://schemas.android.com/apk/res/android" height="16" width="16" xmlns="http://www.w3.org/2000/svg">
  <path android:strokeLineCap="round" android:strokeLineJoin="round" d="M4,10H14" fill="#000000" fill-opacity="0.0" stroke="#000000" stroke-width="1.5"/>
  <path android:strokeLineCap="round" android:strokeLineJoin="round" d="M14,12.6667H4" fill="#000000" fill-opacity="0.0" stroke="#000000" stroke-width="1.5"/>
  <path android:strokeLineCap="round" android:strokeLineJoin="round" d="M10,7.3333H14" fill="#000000" fill-opacity="0.0" stroke="#000000" stroke-width="1.5"/>
  <path android:strokeLineCap="round" android:strokeLineJoin="round" d="M14,4.6667H10" fill="#000000" fill-opacity="0.0" stroke="#000000" stroke-width="1.5"/>
  <path android:strokeLineCap="round" android:strokeLineJoin="round" d="M6,6H6.6667C6.7985,6 6.9274,6.0391 7.037,6.1123C7.1467,6.1856 7.2321,6.2897 7.2826,6.4115C7.333,6.5334 7.3463,6.6674 7.3205,6.7967C7.2948,6.9261 7.2313,7.0448 7.1381,7.1381C7.0448,7.2313 6.9261,7.2948 6.7967,7.3205C6.6674,7.3462 6.5334,7.333 6.4115,7.2826C6.2897,7.2321 6.1856,7.1467 6.1123,7.037C6.0391,6.9274 6,6.7985 6,6.6667V5C6,4.6464 6.1405,4.3072 6.3905,4.0572C6.6406,3.8071 6.9797,3.6667 7.3333,3.6667" fill="#000000" fill-opacity="0.0" stroke="#000000" stroke-width="1.5"/>
  <path android:strokeLineCap="round" android:strokeLineJoin="round" d="M2,6H2.6667C2.7985,6 2.9274,6.0391 3.0371,6.1123C3.1467,6.1856 3.2321,6.2897 3.2826,6.4115C3.333,6.5334 3.3463,6.6674 3.3205,6.7967C3.2948,6.9261 3.2313,7.0448 3.1381,7.1381C3.0448,7.2313 2.926,7.2948 2.7967,7.3205C2.6674,7.3462 2.5334,7.333 2.4115,7.2826C2.2897,7.2321 2.1856,7.1467 2.1123,7.037C2.0391,6.9274 2,6.7985 2,6.6667V5C2,4.6464 2.1405,4.3072 2.3905,4.0572C2.6406,3.8071 2.9797,3.6667 3.3333,3.6667" fill="#000000" fill-opacity="0.0" stroke="#000000" stroke-width="1.5"/>
</svg>