<?xml version="1.0" encoding="UTF-8" standalone="no"?><svg xmlns:android="http://schemas.android.com/apk/res/android" height="24" width="24" xmlns="http://www.w3.org/2000/svg">
  <path android:strokeLineCap="round" android:strokeLineJoin="round" d="M9,17V18C9,18.7956 9.3161,19.5587 9.8787,20.1213C10.4413,20.6839 11.2044,21 12,21C12.7956,21 13.5587,20.6839 14.1213,20.1213C14.6839,19.5587 15,18.7956 15,18V17M21,6.727C20.3441,5.3003 19.3916,4.0297 18.206,3M3,6.727C3.6553,5.3004 4.6072,4.0299 5.792,3M10,5C10,4.4696 10.2107,3.9609 10.5858,3.5858C10.9609,3.2107 11.4696,3 12,3C12.5304,3 13.0391,3.2107 13.4142,3.5858C13.7893,3.9609 14,4.4696 14,5C15.1484,5.543 16.1274,6.3883 16.8321,7.4453C17.5367,8.5023 17.9404,9.7311 18,11V14C18.0753,14.6217 18.2954,15.2171 18.6428,15.7381C18.9902,16.2592 19.4551,16.6914 20,17H4C4.5449,16.6914 5.0098,16.2592 5.3572,15.7381C5.7046,15.2171 5.9247,14.6217 6,14V11C6.0596,9.7311 6.4633,8.5023 7.168,7.4453C7.8726,6.3883 8.8516,5.543 10,5Z" fill="#000000" fill-opacity="0.0" stroke="#000000" stroke-width="2"/>
</svg>