<?xml version="1.0" encoding="UTF-8" standalone="no"?><svg xmlns:android="http://schemas.android.com/apk/res/android" height="24" width="24" xmlns="http://www.w3.org/2000/svg">
  <path android:strokeLineCap="round" android:strokeLineJoin="round" d="M5,7H6C6.5304,7 7.0391,6.7893 7.4142,6.4142C7.7893,6.0391 8,5.5304 8,5C8,4.7348 8.1054,4.4804 8.2929,4.2929C8.4804,4.1054 8.7348,4 9,4H15C15.2652,4 15.5196,4.1054 15.7071,4.2929C15.8946,4.4804 16,4.7348 16,5C16,5.5304 16.2107,6.0391 16.5858,6.4142C16.9609,6.7893 17.4696,7 18,7H19C19.5304,7 20.0391,7.2107 20.4142,7.5858C20.7893,7.9609 21,8.4696 21,9V18C21,18.5304 20.7893,19.0391 20.4142,19.4142C20.0391,19.7893 19.5304,20 19,20H5C4.4696,20 3.9609,19.7893 3.5858,19.4142C3.2107,19.0391 3,18.5304 3,18V9C3,8.4696 3.2107,7.9609 3.5858,7.5858C3.9609,7.2107 4.4696,7 5,7" fill="#000000" fill-opacity="0.0" stroke="#000000" stroke-width="2"/>
  <path android:strokeLineCap="round" android:strokeLineJoin="round" d="M12,16C13.6569,16 15,14.6569 15,13C15,11.3431 13.6569,10 12,10C10.3431,10 9,11.3431 9,13C9,14.6569 10.3431,16 12,16Z" fill="#000000" fill-opacity="0.0" stroke="#000000" stroke-width="2"/>
</svg>