<?xml version="1.0" encoding="UTF-8" standalone="no"?><svg xmlns:android="http://schemas.android.com/apk/res/android" height="24" width="24" xmlns="http://www.w3.org/2000/svg">
  <path d="M8.6692,17.356C8.4452,17.4307 8.1519,17.4947 7.7892,17.548C7.4373,17.6013 7.1013,17.628 6.7813,17.628C5.7786,17.628 5.0426,17.4627 4.5732,17.132C4.1039,16.8013 3.7892,16.252 3.6293,15.484C3.4799,14.716 3.4053,13.5533 3.4053,11.996C3.4053,10.4493 3.4852,9.292 3.6453,8.524C3.8052,7.7453 4.1199,7.1907 4.5893,6.86C5.0693,6.5293 5.7999,6.364 6.7813,6.364C7.1333,6.364 7.4799,6.3907 7.8212,6.444C8.1733,6.4867 8.4452,6.5453 8.6372,6.62V8.412C8.0186,8.3373 7.5493,8.3 7.2292,8.3C6.6852,8.3 6.3066,8.3747 6.0932,8.524C5.8906,8.6627 5.7572,8.9667 5.6933,9.436C5.6399,9.9053 5.6132,10.7587 5.6132,11.996C5.6132,13.2333 5.6399,14.0867 5.6933,14.556C5.7572,15.0253 5.8906,15.3347 6.0932,15.484C6.3066,15.6227 6.6852,15.692 7.2292,15.692C7.7199,15.692 8.1999,15.6547 8.6692,15.58V17.356ZM16.357,17.5L15.221,9.836H15.125L14.005,17.5H10.981L9.397,6.492H11.621L12.565,15.116H12.677L13.925,6.492H16.517L17.781,15.116H17.893L18.789,6.492H20.965L19.365,17.5H16.357Z" fill="#000000"/>
  <path android:strokeLineCap="round" d="M3,3L21,3" fill="#000000" fill-opacity="0.0" stroke="#000000" stroke-width="2"/>
  <path android:strokeLineCap="round" d="M3,21L21,21" fill="#000000" fill-opacity="0.0" stroke="#000000" stroke-width="2"/>
</svg>