<?xml version="1.0" encoding="UTF-8" standalone="no"?><svg xmlns:android="http://schemas.android.com/apk/res/android" height="24" width="24" xmlns="http://www.w3.org/2000/svg">
  <path android:strokeLineCap="round" android:strokeLineJoin="round" d="M12,13C12.5523,13 13,12.5523 13,12C13,11.4477 12.5523,11 12,11C11.4477,11 11,11.4477 11,12C11,12.5523 11.4477,13 12,13Z" fill="#000000" fill-opacity="0.0" stroke="#000000" stroke-width="2"/>
  <path android:strokeLineCap="round" android:strokeLineJoin="round" d="M12,20C12.5523,20 13,19.5523 13,19C13,18.4477 12.5523,18 12,18C11.4477,18 11,18.4477 11,19C11,19.5523 11.4477,20 12,20Z" fill="#000000" fill-opacity="0.0" stroke="#000000" stroke-width="2"/>
  <path android:strokeLineCap="round" android:strokeLineJoin="round" d="M12,6C12.5523,6 13,5.5523 13,5C13,4.4477 12.5523,4 12,4C11.4477,4 11,4.4477 11,5C11,5.5523 11.4477,6 12,6Z" fill="#000000" fill-opacity="0.0" stroke="#000000" stroke-width="2"/>
</svg>