<?xml version="1.0" encoding="UTF-8" standalone="no"?><svg xmlns:android="http://schemas.android.com/apk/res/android" height="24" width="24" xmlns="http://www.w3.org/2000/svg">
  <path android:strokeLineCap="round" android:strokeLineJoin="round" d="M6,4H16L20,8V18C20,18.5304 19.7893,19.0391 19.4142,19.4142C19.0391,19.7893 18.5304,20 18,20H6C5.4696,20 4.9609,19.7893 4.5858,19.4142C4.2107,19.0391 4,18.5304 4,18V6C4,5.4696 4.2107,4.9609 4.5858,4.5858C4.9609,4.2107 5.4696,4 6,4" fill="#000000" fill-opacity="0.0" stroke="#000000" stroke-width="2"/>
  <path android:strokeLineCap="round" android:strokeLineJoin="round" d="M12,16C13.1046,16 14,15.1046 14,14C14,12.8954 13.1046,12 12,12C10.8954,12 10,12.8954 10,14C10,15.1046 10.8954,16 12,16Z" fill="#000000" fill-opacity="0.0" stroke="#000000" stroke-width="2"/>
  <path android:strokeLineCap="round" android:strokeLineJoin="round" d="M14,4V8H8V4" fill="#000000" fill-opacity="0.0" stroke="#000000" stroke-width="2"/>
</svg>