<?xml version="1.0" encoding="UTF-8" standalone="no"?><svg xmlns:android="http://schemas.android.com/apk/res/android" height="16" width="16" xmlns="http://www.w3.org/2000/svg">
  <path android:fillAlpha="0.87" d="M8,14C11.3137,14 14,11.3137 14,8C14,4.6863 11.3137,2 8,2C4.6863,2 2,4.6863 2,8C2,11.3137 4.6863,14 8,14Z" fill="#000000"/>
  <path d="M5.3335,7.25C5.7477,7.25 6.0835,7.5858 6.0835,8V8.0067C6.0835,8.4209 5.7477,8.7567 5.3335,8.7567C4.9193,8.7567 4.5835,8.4209 4.5835,8.0067V8C4.5835,7.5858 4.9193,7.25 5.3335,7.25ZM8.0001,7.25C8.4143,7.25 8.7501,7.5858 8.7501,8V8.0067C8.7501,8.4209 8.4143,8.7567 8.0001,8.7567C7.5859,8.7567 7.2501,8.4209 7.2501,8.0067V8C7.2501,7.5858 7.5859,7.25 8.0001,7.25ZM10.6667,7.25C11.081,7.25 11.4167,7.5858 11.4167,8V8.0067C11.4167,8.4209 11.081,8.7567 10.6667,8.7567C10.2525,8.7567 9.9167,8.4209 9.9167,8.0067V8C9.9167,7.5858 10.2525,7.25 10.6667,7.25Z" fill="#ffffff" fill-rule="evenOdd"/>
</svg>