<?xml version="1.0" encoding="UTF-8" standalone="no"?><svg xmlns:android="http://schemas.android.com/apk/res/android" height="24" width="24" xmlns="http://www.w3.org/2000/svg">
  <path d="M6,3C5.2043,3 4.4413,3.3161 3.8787,3.8787C3.3161,4.4413 3,5.2043 3,6V18C3,18.7956 3.3161,19.5587 3.8787,20.1213C4.4413,20.6839 5.2043,21 6,21H13C13.2652,21 13.5196,20.8946 13.7071,20.7071L20.7071,13.7071C20.8946,13.5196 21,13.2652 21,13V6C21,5.2043 20.6839,4.4413 20.1213,3.8787C19.5587,3.3161 18.7956,3 18,3H6ZM5.2929,5.2929C5.4804,5.1054 5.7348,5 6,5H18C18.2652,5 18.5196,5.1054 18.7071,5.2929C18.8946,5.4804 19,5.7348 19,6V12H15.5919C15.5401,12.7168 15.3893,13.3945 15.1224,14H17.5858L14,17.5858V15.5278C13.4346,16.0051 12.7526,16.2999 12,16.4088V19H6C5.7348,19 5.4804,18.8946 5.2929,18.7071C5.1054,18.5196 5,18.2652 5,18V6C5,5.7348 5.1054,5.4804 5.2929,5.2929Z" fill="#000000" fill-rule="evenOdd"/>
</svg>