<?xml version="1.0" encoding="UTF-8" standalone="no"?><svg xmlns:android="http://schemas.android.com/apk/res/android" height="24" width="24" xmlns="http://www.w3.org/2000/svg">
  <path android:strokeLineCap="round" android:strokeLineJoin="round" d="M17.94,17.94C16.2306,19.243 14.1491,19.9649 12,20C5,20 1,12 1,12C2.2439,9.6819 3.9691,7.6566 6.06,6.06M9.9,4.24C10.5883,4.0789 11.2931,3.9983 12,4C19,4 23,12 23,12C22.393,13.1356 21.6691,14.2047 20.84,15.19M14.12,14.12C13.8454,14.4147 13.5141,14.6511 13.1462,14.8151C12.7782,14.9791 12.3809,15.0673 11.9781,15.0744C11.5753,15.0815 11.1752,15.0074 10.8016,14.8565C10.4281,14.7056 10.0887,14.481 9.8039,14.1961C9.519,13.9113 9.2944,13.5719 9.1435,13.1984C8.9926,12.8248 8.9185,12.4247 8.9256,12.0219C8.9327,11.6191 9.0209,11.2218 9.1849,10.8538C9.3488,10.4858 9.5852,10.1546 9.88,9.88" fill="#000000" fill-opacity="0.0" stroke="#000000" stroke-width="2"/>
  <path android:strokeLineCap="round" android:strokeLineJoin="round" d="M3,3L21,21" fill="#000000" fill-opacity="0.0" stroke="#000000" stroke-width="2"/>
</svg>