<?xml version="1.0" encoding="UTF-8" standalone="no"?><svg xmlns:android="http://schemas.android.com/apk/res/android" height="24" width="24" xmlns="http://www.w3.org/2000/svg">
  <path android:strokeLineCap="round" android:strokeLineJoin="round" d="M5.5,5H18.5C18.644,5.0505 18.7745,5.1333 18.8816,5.2421C18.9887,5.3508 19.0695,5.4826 19.1177,5.6274C19.166,5.7722 19.1805,5.9261 19.1601,6.0774C19.1396,6.2286 19.0849,6.3732 19,6.5L14,12V19L10,16V12L5,6.5C4.9151,6.3732 4.8603,6.2286 4.8399,6.0774C4.8195,5.9261 4.834,5.7722 4.8822,5.6274C4.9305,5.4826 5.0113,5.3508 5.1184,5.2421C5.2254,5.1333 5.356,5.0505 5.5,5Z" fill="#000000" fill-opacity="0.0" stroke="#000000" stroke-width="2"/>
</svg>