<?xml version="1.0" encoding="UTF-8" standalone="no"?><svg xmlns:android="http://schemas.android.com/apk/res/android" height="22" width="24" xmlns="http://www.w3.org/2000/svg">
  <g>
    <clip-path android:pathData="M0,0h24v21.8137h-24z"/>
    <path d="M1.6564,21.2064L0,21.8137C2.7266,15.6498 5.4998,12.3404 10.2488,7.9082L19.6873,6.9237C19.228,7.8191 18.7278,8.6079 18.0129,9.2442C15.7346,11.272 13.8312,11.846 10.7142,12.0923C11.6835,12.4772 12.4198,12.5596 13.0826,12.6338C13.7984,12.714 14.4285,12.7845 15.1737,13.2162C13.3178,13.9036 12.1472,14.6413 11.1631,15.2615C9.987,16.0027 9.0771,16.5762 7.5818,16.6956C4.8351,16.9149 4.3105,17.5577 4.3105,17.5577C3.1069,18.6354 1.6564,21.2064 1.6564,21.2064ZM21.1472,3.9031C21.7965,2.6594 22.6313,1.334 23.9282,0C21.6157,0.1339 18.1787,1.3665 13.8934,4.7281L21.1472,3.9031Z" fill="#4C9EEB"/>
    <path d="M0.0001,21.8137L1.6565,21.2064C1.6565,21.2064 3.1069,18.6354 4.3105,17.5577C4.3105,17.5577 4.8352,16.9149 7.5818,16.6956C10.3285,16.4762 11.1,14.7249 15.1737,13.2162C13.7387,12.3848 12.7306,12.8929 10.7142,12.0923C13.8312,11.846 15.7347,11.272 18.013,9.2442C20.2912,7.2164 20.3893,3.6403 23.9282,-0C21.181,0.1591 16.8465,1.869 11.3879,6.8571C5.9294,11.8452 2.9377,15.1727 0.0001,21.8137Z" fill="#4C9EEB"/>
  </g>
</svg>