<?xml version="1.0" encoding="UTF-8" standalone="no"?><svg xmlns:android="http://schemas.android.com/apk/res/android" height="12" width="16" xmlns="http://www.w3.org/2000/svg">
  <path android:fillAlpha="0.87" d="M3,0L13,0A3,3 0,0 1,16 3L16,9A3,3 0,0 1,13 12L3,12A3,3 0,0 1,0 9L0,3A3,3 0,0 1,3 0z" fill="#000000"/>
  <path d="M7,8.3555C6.7786,8.595 6.5065,8.776 6.1836,8.8984C5.8633,9.0182 5.5117,9.0781 5.1289,9.0781C4.4753,9.0781 3.9674,8.8763 3.6055,8.4727C3.2435,8.0664 3.0573,7.4766 3.0469,6.7031V5.6797C3.0469,4.8958 3.2174,4.293 3.5586,3.8711C3.9023,3.4466 4.4023,3.2344 5.0586,3.2344C5.6758,3.2344 6.1406,3.3867 6.4531,3.6914C6.7682,3.9961 6.9505,4.474 7,5.125H5.8828C5.8516,4.763 5.776,4.5169 5.6563,4.3867C5.5365,4.2539 5.349,4.1875 5.0938,4.1875C4.7839,4.1875 4.5586,4.3008 4.418,4.5273C4.2773,4.7539 4.2044,5.1146 4.1992,5.6094V6.6406C4.1992,7.1589 4.276,7.5365 4.4297,7.7734C4.5859,8.0078 4.8411,8.125 5.1953,8.125C5.4219,8.125 5.6055,8.0794 5.7461,7.9883L5.8477,7.918V6.875H5.043V6.0078H7V8.3555ZM9.0117,9H7.8633V3.3125H9.0117V9ZM12.9102,6.6797H11.125V9H9.9766V3.3125H13.125V4.2695H11.125V5.7266H12.9102V6.6797Z" fill="#ffffff"/>
</svg>