<?xml version="1.0" encoding="UTF-8" standalone="no"?><svg xmlns:android="http://schemas.android.com/apk/res/android" height="24" width="24" xmlns="http://www.w3.org/2000/svg">
  <path android:strokeLineCap="round" android:strokeLineJoin="round" d="M21,12C21,16.9706 16.9706,21 12,21M21,12C21,7.0294 16.9706,3 12,3M21,12H3M12,21C7.0294,21 3,16.9706 3,12M12,21C14.5013,18.5355 15.9228,15.3372 16,12C15.9228,8.6628 14.5013,5.4645 12,3M12,21C9.4987,18.5355 8.0772,15.3372 8,12C8.0772,8.6628 9.4987,5.4645 12,3M3,12C3,7.0294 7.0294,3 12,3" fill="#000000" fill-opacity="0.0" stroke="#000000" stroke-width="2"/>
</svg>