<?xml version="1.0" encoding="UTF-8" standalone="no"?><svg xmlns:android="http://schemas.android.com/apk/res/android" height="36" width="36" xmlns="http://www.w3.org/2000/svg">
  <path android:fillAlpha="0.6" d="M18.0004,0.0029C8.0611,0.0029 0,8.0619 0,18.0031C0,25.9552 5.1572,32.7017 12.3105,35.0822C13.2106,35.2474 13.5393,34.6916 13.5393,34.2145C13.5393,33.7873 13.5235,32.6553 13.515,31.1531C8.5076,32.2408 7.4512,28.7403 7.4512,28.7403C6.6327,26.6608 5.4528,26.1074 5.4528,26.1074C3.8184,24.9915 5.5762,25.014 5.5762,25.014C7.3826,25.1413 8.3336,26.8692 8.3336,26.8692C9.9392,29.6199 12.5465,28.8253 13.572,28.3648C13.7358,27.2015 14.2006,26.4083 14.7149,25.9583C10.7179,25.5041 6.5156,23.9597 6.5156,17.0637C6.5156,15.0988 7.217,13.4922 8.3684,12.2339C8.1835,11.7769 7.5658,9.9487 8.5442,7.4702C8.5442,7.4702 10.0559,6.9861 13.4943,9.3152C14.9301,8.9162 16.47,8.7175 18.0007,8.7095C19.5293,8.7165 21.0692,8.9162 22.5071,9.3152C25.9437,6.9861 27.4523,7.4702 27.4523,7.4702C28.4342,9.9484 27.8165,11.7783 27.6312,12.2339C28.7851,13.4922 29.4815,15.0988 29.4815,17.0637C29.4815,23.9787 25.2729,25.5013 21.2629,25.946C21.9091,26.5018 22.485,27.6005 22.485,29.2796C22.485,31.6857 22.4628,33.6274 22.4628,34.2173C22.4628,34.6986 22.787,35.2586 23.7007,35.0829C30.847,32.6982 36,25.9559 36,18.0059C36.0018,8.0619 27.9417,0.0029 18.0004,0.0029Z" fill="#000000"/>
</svg>