<?xml version="1.0" encoding="UTF-8" standalone="no"?><svg xmlns:android="http://schemas.android.com/apk/res/android" height="24" width="24" xmlns="http://www.w3.org/2000/svg">
  <path android:strokeLineCap="round" android:strokeLineJoin="round" d="M5,12H3L12,3L21,12H19" fill="#000000" fill-opacity="0.0" stroke="#000000" stroke-width="2"/>
  <path android:strokeLineCap="round" android:strokeLineJoin="round" d="M5,12V19C5,19.5304 5.2107,20.0391 5.5858,20.4142C5.9609,20.7893 6.4696,21 7,21H17C17.5304,21 18.0391,20.7893 18.4142,20.4142C18.7893,20.0391 19,19.5304 19,19V12" fill="#000000" fill-opacity="0.0" stroke="#000000" stroke-width="2"/>
  <path android:strokeLineCap="round" android:strokeLineJoin="round" d="M9,21V15C9,14.4696 9.2107,13.9609 9.5858,13.5858C9.9609,13.2107 10.4696,13 11,13H13C13.5304,13 14.0391,13.2107 14.4142,13.5858C14.7893,13.9609 15,14.4696 15,15V21" fill="#000000" fill-opacity="0.0" stroke="#000000" stroke-width="2"/>
</svg>