<?xml version="1.0" encoding="UTF-8" standalone="no"?><svg xmlns:android="http://schemas.android.com/apk/res/android" height="24" width="24" xmlns="http://www.w3.org/2000/svg">
  <path android:strokeLineCap="round" android:strokeLineJoin="round" d="M8,11V7C8,5.9391 8.4214,4.9217 9.1716,4.1716C9.9217,3.4214 10.9391,3 12,3C13.0609,3 14.0783,3.4214 14.8284,4.1716C15.5786,4.9217 16,5.9391 16,7V11M7,11H17C18.1046,11 19,11.8954 19,13V19C19,20.1046 18.1046,21 17,21H7C5.8954,21 5,20.1046 5,19V13C5,11.8954 5.8954,11 7,11ZM13,16C13,16.5523 12.5523,17 12,17C11.4477,17 11,16.5523 11,16C11,15.4477 11.4477,15 12,15C12.5523,15 13,15.4477 13,16Z" fill="#000000" fill-opacity="0.0" stroke="#000000" stroke-width="2"/>
</svg>