<?xml version="1.0" encoding="UTF-8" standalone="no"?><svg xmlns:android="http://schemas.android.com/apk/res/android" height="24" width="24" xmlns="http://www.w3.org/2000/svg">
  <path android:strokeLineCap="round" android:strokeLineJoin="round" d="M17,11H7C5.8954,11 5,11.8954 5,13V19C5,20.1046 5.8954,21 7,21H17C18.1046,21 19,20.1046 19,19V13C19,11.8954 18.1046,11 17,11Z" fill="#000000" fill-opacity="0.0" stroke="#000000" stroke-width="2"/>
  <path android:strokeLineCap="round" android:strokeLineJoin="round" d="M12,17C12.5523,17 13,16.5523 13,16C13,15.4477 12.5523,15 12,15C11.4477,15 11,15.4477 11,16C11,16.5523 11.4477,17 12,17Z" fill="#000000" fill-opacity="0.0" stroke="#000000" stroke-width="2"/>
  <path android:strokeLineCap="round" android:strokeLineJoin="round" d="M8,11V6C8,4.9391 8.4214,3.9217 9.1716,3.1716C9.9217,2.4214 10.9391,2 12,2C13.0609,2 14.0783,2.4214 14.8284,3.1716C15.5786,3.9217 16,4.9391 16,6" fill="#000000" fill-opacity="0.0" stroke="#000000" stroke-width="2"/>
</svg>