<?xml version="1.0" encoding="UTF-8" standalone="no"?><svg xmlns:android="http://schemas.android.com/apk/res/android" height="24" width="24" xmlns="http://www.w3.org/2000/svg">
  <path android:strokeLineCap="round" android:strokeLineJoin="round" d="M3,20L4.3,16.1C3.1764,14.4383 2.77,12.4704 3.1562,10.5623C3.5424,8.6542 4.6951,6.9357 6.3998,5.7263C8.1045,4.5169 10.2453,3.8989 12.4241,3.9872C14.6029,4.0756 16.6715,4.8642 18.2453,6.2066C19.819,7.5489 20.7909,9.3535 20.9801,11.285C21.1693,13.2164 20.563,15.1432 19.2739,16.7071C17.9848,18.271 16.1007,19.3656 13.9718,19.7874C11.8429,20.2091 9.6142,19.9293 7.7,19L3,20" fill="#000000" fill-opacity="0.0" stroke="#000000" stroke-width="2"/>
  <path android:strokeLineCap="round" android:strokeLineJoin="round" d="M12,12V12.01" fill="#000000" fill-opacity="0.0" stroke="#000000" stroke-width="2"/>
  <path android:strokeLineCap="round" android:strokeLineJoin="round" d="M8,12V12.01" fill="#000000" fill-opacity="0.0" stroke="#000000" stroke-width="2"/>
  <path android:strokeLineCap="round" android:strokeLineJoin="round" d="M16,12V12.01" fill="#000000" fill-opacity="0.0" stroke="#000000" stroke-width="2"/>
</svg>