<?xml version="1.0" encoding="UTF-8" standalone="no"?><svg xmlns:android="http://schemas.android.com/apk/res/android" height="32" width="32" xmlns="http://www.w3.org/2000/svg">
    <path d="M20.9557,22.2926C23.9628,21.9336 26.5811,20.0807 26.9102,18.3878C27.4287,15.7208 27.3859,11.8796 27.3859,11.8796C27.3859,6.6733 23.9748,5.1472 23.9748,5.1472C22.2549,4.3573 19.3016,4.0251 16.2333,4H16.158C13.0897,4.0251 10.1383,4.3573 8.4183,5.1472C8.4183,5.1472 5.0071,6.6733 5.0071,11.8796C5.0071,12.1952 5.0055,12.5272 5.0038,12.8728C4.9991,13.8326 4.9938,14.8974 5.0216,16.0089C5.1455,21.1004 5.955,26.1184 10.6625,27.3644C12.833,27.9389 14.6966,28.0591 16.1974,27.9766C18.9191,27.8257 20.447,27.0053 20.447,27.0053L20.3573,25.0305C20.3573,25.0305 18.4123,25.6438 16.2279,25.5691C14.0637,25.4949 11.7791,25.3357 11.429,22.6786C11.3967,22.4452 11.3805,22.1957 11.3805,21.9336C11.3805,21.9336 13.505,22.4528 16.1974,22.5762C17.8437,22.6517 19.3876,22.4797 20.9557,22.2926ZM23.3623,18.5873V12.2833C23.3623,10.9949 23.0342,9.9711 22.3754,9.2136C21.6958,8.4562 20.8059,8.0679 19.7014,8.0679C18.4232,8.0679 17.4554,8.5591 16.8156,9.5417L16.1933,10.5845L15.5713,9.5417C14.9313,8.5591 13.9635,8.0679 12.6854,8.0679C11.5808,8.0679 10.6909,8.4562 10.0114,9.2136C9.3525,9.9711 9.0244,10.9949 9.0244,12.2833V18.5873H11.5219V12.4686C11.5219,11.1788 12.0646,10.5241 13.1501,10.5241C14.3504,10.5241 14.952,11.3008 14.952,12.8364V16.1855H17.4348V12.8364C17.4348,11.3008 18.0363,10.5241 19.2365,10.5241C20.322,10.5241 20.8647,11.1788 20.8647,12.4686V18.5873H23.3623Z" fill="#4C9EEB" fill-rule="evenOdd"/>
</svg>