<?xml version="1.0" encoding="UTF-8" standalone="no"?><svg xmlns:android="http://schemas.android.com/apk/res/android" height="24" width="24" xmlns="http://www.w3.org/2000/svg">
  <path android:strokeLineCap="round" android:strokeLineJoin="round" d="M12,21C16.9706,21 21,16.9706 21,12C21,7.0294 16.9706,3 12,3C7.0294,3 3,7.0294 3,12C3,16.9706 7.0294,21 12,21Z" fill="#000000" fill-opacity="0.0" stroke="#000000" stroke-width="2"/>
  <path android:strokeLineCap="round" android:strokeLineJoin="round" d="M9,10H9.01" fill="#000000" fill-opacity="0.0" stroke="#000000" stroke-width="2"/>
  <path android:strokeLineCap="round" android:strokeLineJoin="round" d="M15,10H15.01" fill="#000000" fill-opacity="0.0" stroke="#000000" stroke-width="2"/>
  <path android:strokeLineCap="round" android:strokeLineJoin="round" d="M9.5,15C9.8259,15.3326 10.2148,15.5968 10.6441,15.7772C11.0734,15.9576 11.5344,16.0505 12,16.0505C12.4656,16.0505 12.9266,15.9576 13.3559,15.7772C13.7852,15.5968 14.1741,15.3326 14.5,15" fill="#000000" fill-opacity="0.0" stroke="#000000" stroke-width="2"/>
</svg>