<?xml version="1.0" encoding="UTF-8" standalone="no"?><svg xmlns:android="http://schemas.android.com/apk/res/android" height="24" width="24" xmlns="http://www.w3.org/2000/svg">
  <path android:strokeLineCap="round" android:strokeLineJoin="round" d="M12,14C13.6569,14 15,12.6569 15,11C15,9.3432 13.6569,8 12,8C10.3431,8 9,9.3432 9,11C9,12.6569 10.3431,14 12,14Z" fill="#000000" fill-opacity="0.0" stroke="#000000" stroke-width="2"/>
  <path android:strokeLineCap="round" android:strokeLineJoin="round" d="M17.657,16.657L13.414,20.9C13.039,21.2746 12.5306,21.4851 12.0005,21.4851C11.4704,21.4851 10.962,21.2746 10.587,20.9L6.343,16.657C5.2242,15.5382 4.4623,14.1127 4.1537,12.5609C3.845,11.009 4.0035,9.4005 4.609,7.9387C5.2145,6.477 6.2399,5.2276 7.5555,4.3485C8.8711,3.4695 10.4178,3.0003 12,3.0003C13.5822,3.0003 15.1289,3.4695 16.4445,4.3485C17.7601,5.2276 18.7855,6.477 19.391,7.9387C19.9965,9.4005 20.155,11.009 19.8463,12.5609C19.5377,14.1127 18.7758,15.5382 17.657,16.657V16.657Z" fill="#000000" fill-opacity="0.0" stroke="#000000" stroke-width="2"/>
</svg>