<?xml version="1.0" encoding="UTF-8" standalone="no"?><svg xmlns:android="http://schemas.android.com/apk/res/android" height="32" width="32" xmlns="http://www.w3.org/2000/svg">
  <path d="M20.9557,22.2926C23.9628,21.9336 26.5811,20.0807 26.9102,18.3878C27.4287,15.7208 27.3859,11.8796 27.3859,11.8796C27.3859,6.6733 23.9748,5.1472 23.9748,5.1472C22.2549,4.3573 19.3016,4.0251 16.2333,4H16.158C13.0897,4.0251 10.1383,4.3573 8.4183,5.1472C8.4183,5.1472 5.0071,6.6733 5.0071,11.8796C5.0071,12.1952 5.0055,12.5272 5.0038,12.8728C4.9991,13.8326 4.9938,14.8974 5.0216,16.0089C5.1455,21.1004 5.955,26.1184 10.6625,27.3644C12.833,27.9389 14.6966,28.0591 16.1974,27.9766C18.9191,27.8257 20.447,27.0053 20.447,27.0053L20.3573,25.0305C20.3573,25.0305 18.4123,25.6438 16.2279,25.5691C14.0637,25.4949 11.7791,25.3357 11.429,22.6786C11.3967,22.4452 11.3805,22.1957 11.3805,21.9336C11.3805,21.9336 13.505,22.4528 16.1974,22.5762C17.8437,22.6517 19.3876,22.4797 20.9557,22.2926ZM23.3623,18.5878V12.2838C23.3623,10.9954 23.0342,9.9716 22.3754,9.2141C21.6958,8.4567 20.8059,8.0684 19.7014,8.0684C18.4232,8.0684 17.4554,8.5596 16.8156,9.5422L16.1933,10.585L15.5713,9.5422C14.9313,8.5596 13.9635,8.0684 12.6854,8.0684C11.5808,8.0684 10.6909,8.4567 10.0114,9.2141C9.3525,9.9716 9.0244,10.9954 9.0244,12.2838V18.5878H11.5219V12.4691C11.5219,11.1793 12.0646,10.5246 13.1501,10.5246C14.3504,10.5246 14.952,11.3012 14.952,12.8369V16.186H17.4348V12.8369C17.4348,11.3012 18.0363,10.5246 19.2365,10.5246C20.322,10.5246 20.8647,11.1793 20.8647,12.4691V18.5878H23.3623Z" fill="#ffffff" fill-rule="evenOdd"/>
</svg>