<?xml version="1.0" encoding="UTF-8" standalone="no"?><svg xmlns:android="http://schemas.android.com/apk/res/android" height="24" width="24" xmlns="http://www.w3.org/2000/svg">
  <path android:strokeLineCap="round" android:strokeLineJoin="round" d="M13,20L20,13M13,20V14C13,13.7348 13.1054,13.4804 13.2929,13.2929C13.4804,13.1054 13.7348,13 14,13H20M13,20H6C5.4696,20 4.9609,19.7893 4.5858,19.4142C4.2107,19.0391 4,18.5304 4,18V6C4,5.4696 4.2107,4.9609 4.5858,4.5858C4.9609,4.2107 5.4696,4 6,4H18C18.5304,4 19.0391,4.2107 19.4142,4.5858C19.7893,4.9609 20,5.4696 20,6V13" fill="#000000" fill-opacity="0.0" stroke="#000000" stroke-width="2"/>
</svg>