<?xml version="1.0" encoding="UTF-8" standalone="no"?><svg xmlns:android="http://schemas.android.com/apk/res/android" height="24" width="24" xmlns="http://www.w3.org/2000/svg">
  <path d="M4,17L16,17A1,1 0,0 1,17 18L17,19A1,1 0,0 1,16 20L4,20A1,1 0,0 1,3 19L3,18A1,1 0,0 1,4 17z" fill="#000000" fill-opacity="0.0" stroke="#000000" stroke-width="2"/>
  <path d="M4,10L10,10A1,1 0,0 1,11 11L11,12A1,1 0,0 1,10 13L4,13A1,1 0,0 1,3 12L3,11A1,1 0,0 1,4 10z" fill="#000000" fill-opacity="0.0" stroke="#000000" stroke-width="2"/>
  <path d="M4,3L20,3A1,1 0,0 1,21 4L21,5A1,1 0,0 1,20 6L4,6A1,1 0,0 1,3 5L3,4A1,1 0,0 1,4 3z" fill="#000000" fill-opacity="0.0" stroke="#000000" stroke-width="2"/>
</svg>