<?xml version="1.0" encoding="UTF-8" standalone="no"?><svg xmlns:android="http://schemas.android.com/apk/res/android" height="24" width="24" xmlns="http://www.w3.org/2000/svg">
  <path android:strokeLineCap="round" android:strokeLineJoin="round" d="M15,4L21,6V11H18V19C18,19.2652 17.8946,19.5196 17.7071,19.7071C17.5196,19.8946 17.2652,20 17,20H7C6.7348,20 6.4804,19.8946 6.2929,19.7071C6.1054,19.5196 6,19.2652 6,19V11H3V6L9,4C9,4.7957 9.3161,5.5587 9.8787,6.1213C10.4413,6.6839 11.2044,7 12,7C12.7956,7 13.5587,6.6839 14.1213,6.1213C14.6839,5.5587 15,4.7957 15,4Z" fill="#000000" fill-opacity="0.0" stroke="#000000" stroke-width="2"/>
</svg>