<?xml version="1.0" encoding="UTF-8" standalone="no"?><svg xmlns:android="http://schemas.android.com/apk/res/android" height="24" width="24" xmlns="http://www.w3.org/2000/svg">
  <path android:strokeLineCap="round" android:strokeLineJoin="round" d="M10.0001,14L21.0001,3M10.0001,14L13.5001,21C13.5439,21.0957 13.6144,21.1769 13.703,21.2338C13.7917,21.2906 13.8948,21.3209 14.0001,21.3209C14.1054,21.3209 14.2085,21.2906 14.2971,21.2338C14.3858,21.1769 14.4562,21.0957 14.5001,21M10.0001,14L3.0001,10.5C2.9043,10.4561 2.8232,10.3857 2.7663,10.2971C2.7094,10.2084 2.6792,10.1053 2.6792,10C2.6792,9.8947 2.7094,9.7916 2.7663,9.7029C2.8232,9.6143 2.9043,9.5439 3.0001,9.5L21.0001,3M21.0001,3L19.0001,9" fill="#000000" fill-opacity="0.0" stroke="#4C9EEB" stroke-width="2"/>
  <path d="M18.5,20C20.9853,20 23,17.9853 23,15.5C23,13.0147 20.9853,11 18.5,11C16.0147,11 14,13.0147 14,15.5C14,17.9853 16.0147,20 18.5,20ZM18.5,13C18.7761,13 19,13.2239 19,13.5V15H20.5C20.7761,15 21,15.2239 21,15.5C21,15.7761 20.7761,16 20.5,16H19V17.5C19,17.7761 18.7761,18 18.5,18C18.2239,18 18,17.7761 18,17.5V16H16.5C16.2239,16 16,15.7761 16,15.5C16,15.2239 16.2239,15 16.5,15H18V13.5C18,13.2239 18.2239,13 18.5,13Z" fill="#4C9EEB" fill-rule="evenOdd"/>
</svg>