<svg width="24" height="24" viewBox="0 0 24 24" fill="none" xmlns="http://www.w3.org/2000/svg">
<g clip-path="url(#clip0_12831_10254)">
<path d="M8 13V4.5C8 4.10218 8.15804 3.72064 8.43934 3.43934C8.72064 3.15804 9.10218 3 9.5 3C9.89782 3 10.2794 3.15804 10.5607 3.43934C10.842 3.72064 11 4.10218 11 4.5V12" stroke="#4C9EEB" stroke-width="2" stroke-linecap="round" stroke-linejoin="round"/>
<path d="M11 11.5V9.5C11 9.10218 11.158 8.72064 11.4393 8.43934C11.7206 8.15804 12.1022 8 12.5 8C12.8978 8 13.2794 8.15804 13.5607 8.43934C13.842 8.72064 14 9.10218 14 9.5V12" stroke="#4C9EEB" stroke-width="2" stroke-linecap="round" stroke-linejoin="round"/>
<path d="M14 10.5C14 10.1022 14.158 9.72064 14.4393 9.43934C14.7206 9.15804 15.1022 9 15.5 9C15.8978 9 16.2794 9.15804 16.5607 9.43934C16.842 9.72064 17 10.1022 17 10.5V12" stroke="#4C9EEB" stroke-width="2" stroke-linecap="round" stroke-linejoin="round"/>
<path d="M17 11.5C17 11.1022 17.158 10.7206 17.4393 10.4393C17.7206 10.158 18.1022 10 18.5 10C18.8978 10 19.2794 10.158 19.5607 10.4393C19.842 10.7206 20 11.1022 20 11.5V16C20 17.5913 19.3679 19.1174 18.2426 20.2426C17.1174 21.3679 15.5913 22 14 22H12H12.208C11.2143 22.0002 10.2362 21.7535 9.36138 21.2823C8.48658 20.811 7.74252 20.1299 7.196 19.3L7 19C6.688 18.521 5.593 16.612 3.714 13.272C3.52245 12.9315 3.47128 12.5298 3.57138 12.1522C3.67148 11.7745 3.91495 11.4509 4.25 11.25C4.60688 11.0359 5.02507 10.9471 5.43816 10.9978C5.85125 11.0486 6.23554 11.2359 6.53 11.53L8 13" stroke="#4C9EEB" stroke-width="2" stroke-linecap="round" stroke-linejoin="round"/>
<path d="M2.54099 5.59399C3.3084 5.03296 4.13299 4.55463 5.00099 4.16699" stroke="#4C9EEB" stroke-width="2" stroke-linecap="round" stroke-linejoin="round"/>
<path d="M14 3.45801C15.32 3.81201 16.558 4.36001 17.685 5.07001" stroke="#4C9EEB" stroke-width="2" stroke-linecap="round" stroke-linejoin="round"/>
</g>
<defs>
<clipPath id="clip0_12831_10254">
<rect width="24" height="24" fill="white"/>
</clipPath>
</defs>
</svg>
