<?xml version="1.0" encoding="UTF-8" standalone="no"?><svg xmlns:android="http://schemas.android.com/apk/res/android" height="24" width="24" xmlns="http://www.w3.org/2000/svg">
  <path android:strokeLineCap="round" android:strokeLineJoin="round" d="M10,6H7C6.4696,6 5.9609,6.2107 5.5858,6.5858C5.2107,6.9609 5,7.4696 5,8V17C5,17.5304 5.2107,18.0391 5.5858,18.4142C5.9609,18.7893 6.4696,19 7,19H16C16.5304,19 17.0391,18.7893 17.4142,18.4142C17.7893,18.0391 18,17.5304 18,17V14" fill="#000000" fill-opacity="0.0" stroke="#000000" stroke-width="2"/>
  <path android:strokeLineCap="round" android:strokeLineJoin="round" d="M17,10C18.6569,10 20,8.6568 20,7C20,5.3432 18.6569,4 17,4C15.3431,4 14,5.3432 14,7C14,8.6568 15.3431,10 17,10Z" fill="#000000" fill-opacity="0.0" stroke="#000000" stroke-width="2"/>
</svg>