<?xml version="1.0" encoding="UTF-8" standalone="no"?><svg xmlns:android="http://schemas.android.com/apk/res/android" height="24" width="24" xmlns="http://www.w3.org/2000/svg">
  <path android:strokeLineCap="round" android:strokeLineJoin="round" d="M10,14L20.9999,3M10,14L13.4999,21C13.5438,21.0957 13.6143,21.1769 13.7029,21.2338C13.7915,21.2906 13.8946,21.3209 13.9999,21.3209C14.1053,21.3209 14.2084,21.2906 14.297,21.2338C14.3856,21.1769 14.4561,21.0957 14.4999,21L20.9999,3M10,14L2.9999,10.5C2.9042,10.4561 2.8231,10.3857 2.7662,10.2971C2.7093,10.2084 2.6791,10.1053 2.6791,10C2.6791,9.8947 2.7093,9.7916 2.7662,9.7029C2.8231,9.6143 2.9042,9.5439 2.9999,9.5L20.9999,3" fill="#000000" fill-opacity="0.0" stroke="#000000" stroke-width="2"/>
</svg>