<?xml version="1.0" encoding="UTF-8" standalone="no"?><svg xmlns:android="http://schemas.android.com/apk/res/android" height="24" width="24" xmlns="http://www.w3.org/2000/svg">
  <path android:strokeLineCap="round" android:strokeLineJoin="round" d="M12,3L8,10H16L12,3Z" fill="#000000" fill-opacity="0.0" stroke="#000000" stroke-width="2"/>
  <path android:strokeLineCap="round" android:strokeLineJoin="round" d="M17,20C18.6569,20 20,18.6569 20,17C20,15.3431 18.6569,14 17,14C15.3431,14 14,15.3431 14,17C14,18.6569 15.3431,20 17,20Z" fill="#000000" fill-opacity="0.0" stroke="#000000" stroke-width="2"/>
  <path android:strokeLineCap="round" android:strokeLineJoin="round" d="M9,14H5C4.4477,14 4,14.4477 4,15V19C4,19.5523 4.4477,20 5,20H9C9.5523,20 10,19.5523 10,19V15C10,14.4477 9.5523,14 9,14Z" fill="#000000" fill-opacity="0.0" stroke="#000000" stroke-width="2"/>
</svg>