<?xml version="1.0" encoding="UTF-8" standalone="no"?><svg xmlns:android="http://schemas.android.com/apk/res/android" height="24" width="24" xmlns="http://www.w3.org/2000/svg">
  <path android:strokeLineCap="round" android:strokeLineJoin="round" d="M11.7804,19.9763C10.3627,19.9436 8.9629,19.6132 7.7,19.0001L3,20.0001L4.3,16.1001C3.1764,14.4384 2.77,12.4705 3.1562,10.5624C3.5424,8.6543 4.6951,6.9358 6.3998,5.7263C8.1045,4.517 10.2453,3.899 12.4241,3.9873C14.6029,4.0757 16.6715,4.8643 18.2453,6.2066C19.819,7.549 20.7909,9.3536 20.9801,11.2851C21.0127,11.618 21.0217,11.9508 21.0076,12.2817" fill="#000000" fill-opacity="0.0" stroke="#000000" stroke-width="2"/>
  <path d="M18.5,23C20.9853,23 23,20.9853 23,18.5C23,16.0147 20.9853,14 18.5,14C16.0147,14 14,16.0147 14,18.5C14,20.9853 16.0147,23 18.5,23ZM18.5,16C18.7761,16 19,16.2239 19,16.5V18H20.5C20.7761,18 21,18.2239 21,18.5C21,18.7761 20.7761,19 20.5,19H19V20.5C19,20.7761 18.7761,21 18.5,21C18.2239,21 18,20.7761 18,20.5V19H16.5C16.2239,19 16,18.7761 16,18.5C16,18.2239 16.2239,18 16.5,18H18V16.5C18,16.2239 18.2239,16 18.5,16Z" fill="#000000" fill-rule="evenOdd"/>
  <path android:strokeLineCap="round" android:strokeLineJoin="round" d="M12,12V12.01" fill="#000000" fill-opacity="0.0" stroke="#000000" stroke-width="2"/>
  <path android:strokeLineCap="round" android:strokeLineJoin="round" d="M8,12V12.01" fill="#000000" fill-opacity="0.0" stroke="#000000" stroke-width="2"/>
  <path android:strokeLineCap="round" android:strokeLineJoin="round" d="M16,12V12.01" fill="#000000" fill-opacity="0.0" stroke="#000000" stroke-width="2"/>
</svg>