<?xml version="1.0" encoding="UTF-8" standalone="no"?><svg xmlns:android="http://schemas.android.com/apk/res/android" height="24" width="24" xmlns="http://www.w3.org/2000/svg">
  <path android:strokeAlpha="0.6" android:strokeLineCap="round" android:strokeLineJoin="round" d="M4,7H20M10,11V17M14,11V17M5,7L6,19C6,19.5304 6.2107,20.0391 6.5858,20.4142C6.9609,20.7893 7.4696,21 8,21H16C16.5304,21 17.0391,20.7893 17.4142,20.4142C17.7893,20.0391 18,19.5304 18,19L19,7M9,7V4C9,3.7348 9.1054,3.4804 9.2929,3.2929C9.4804,3.1054 9.7348,3 10,3H14C14.2652,3 14.5196,3.1054 14.7071,3.2929C14.8946,3.4804 15,3.7348 15,4V7" fill="#000000" fill-opacity="0.0" stroke="#000000" stroke-width="2"/>
</svg>