<?xml version="1.0" encoding="UTF-8" standalone="no"?><svg xmlns:android="http://schemas.android.com/apk/res/android" height="24" width="24" xmlns="http://www.w3.org/2000/svg">
  <path android:strokeLineCap="round" android:strokeLineJoin="round" d="M19,4H5C4.4477,4 4,4.4477 4,5V7C4,7.5523 4.4477,8 5,8H19C19.5523,8 20,7.5523 20,7V5C20,4.4477 19.5523,4 19,4Z" fill="#000000" fill-opacity="0.0" stroke="#000000" stroke-width="2"/>
  <path android:strokeLineCap="round" android:strokeLineJoin="round" d="M9,12H5C4.4477,12 4,12.4477 4,13V19C4,19.5523 4.4477,20 5,20H9C9.5523,20 10,19.5523 10,19V13C10,12.4477 9.5523,12 9,12Z" fill="#000000" fill-opacity="0.0" stroke="#000000" stroke-width="2"/>
  <path android:strokeLineCap="round" android:strokeLineJoin="round" d="M14,12H20" fill="#000000" fill-opacity="0.0" stroke="#000000" stroke-width="2"/>
  <path android:strokeLineCap="round" android:strokeLineJoin="round" d="M14,16H20" fill="#000000" fill-opacity="0.0" stroke="#000000" stroke-width="2"/>
  <path android:strokeLineCap="round" android:strokeLineJoin="round" d="M14,20H20" fill="#000000" fill-opacity="0.0" stroke="#000000" stroke-width="2"/>
</svg>