<?xml version="1.0" encoding="UTF-8" standalone="no"?><svg xmlns:android="http://schemas.android.com/apk/res/android" height="32" width="32" xmlns="http://www.w3.org/2000/svg">
    <path d="M12.2896,24.127C19.8368,24.127 23.9648,17.8742 23.9648,12.4518C23.9648,12.2742 23.9648,12.0974 23.9528,11.9214C24.7559,11.3405 25.4491,10.6213 26,9.7974C25.2511,10.1293 24.4567,10.3469 23.6432,10.443C24.4998,9.9302 25.1409,9.1236 25.4472,8.1734C24.6417,8.6514 23.7605,8.9882 22.8416,9.1694C22.2229,8.5116 21.4047,8.0759 20.5135,7.93C19.6223,7.784 18.7079,7.9359 17.9116,8.362C17.1154,8.7881 16.4819,9.4647 16.109,10.2872C15.7361,11.1097 15.6446,12.0321 15.8488,12.9118C14.2174,12.83 12.6214,12.4061 11.1645,11.6675C9.7076,10.9289 8.4223,9.8922 7.392,8.6246C6.8673,9.528 6.7066,10.5973 6.9426,11.615C7.1786,12.6326 7.7936,13.5221 8.6624,14.1022C8.0094,14.0829 7.3706,13.9067 6.8,13.5886C6.8,13.6054 6.8,13.623 6.8,13.6406C6.8003,14.588 7.1282,15.5061 7.7282,16.2393C8.3282,16.9724 9.1634,17.4754 10.092,17.663C9.4879,17.8278 8.8541,17.8519 8.2392,17.7334C8.5014,18.5488 9.0119,19.2617 9.6993,19.7727C10.3866,20.2836 11.2165,20.5669 12.0728,20.583C10.6198,21.725 8.8249,22.3449 6.9768,22.343C6.6503,22.3424 6.3242,22.3226 6,22.2838C7.8765,23.488 10.0599,24.1268 12.2896,24.1238" fill="#ffffff"/>
</svg>