<?xml version="1.0" encoding="UTF-8" standalone="no"?><svg xmlns:android="http://schemas.android.com/apk/res/android" height="36" width="36" xmlns="http://www.w3.org/2000/svg">
  <path android:fillAlpha="0.6" d="M36,18C36,27.9411 27.9411,36 18,36C8.0589,36 0,27.9411 0,18C0,8.0589 8.0589,0 18,0C27.9411,0 36,8.0589 36,18ZM18.645,13.2883C16.8943,14.0165 13.3952,15.5237 8.1478,17.8099C7.2958,18.1488 6.8494,18.4803 6.8088,18.8044C6.7401,19.3522 7.4261,19.5679 8.3602,19.8616C8.4873,19.9016 8.6189,19.943 8.7539,19.9869C9.673,20.2856 10.9092,20.6351 11.5519,20.649C12.1349,20.6616 12.7856,20.4212 13.504,19.928C18.4067,16.6184 20.9376,14.9457 21.0965,14.9096C21.2086,14.8842 21.3639,14.8522 21.4691,14.9457C21.5744,15.0393 21.564,15.2164 21.5529,15.2639C21.4849,15.5537 18.7922,18.0571 17.3987,19.3526C16.9643,19.7565 16.6561,20.043 16.5931,20.1084C16.452,20.255 16.3082,20.3936 16.17,20.5269C15.3161,21.3499 14.6759,21.9672 16.2054,22.9751C16.9405,23.4595 17.5286,23.8601 18.1154,24.2597C18.7563,24.6961 19.3954,25.1314 20.2224,25.6735C20.4331,25.8116 20.6343,25.955 20.8303,26.0947C21.5761,26.6264 22.2461,27.1041 23.0739,27.0279C23.5549,26.9836 24.0517,26.5314 24.304,25.1825C24.9003,21.9947 26.0724,15.0876 26.3433,12.2414C26.3671,11.992 26.3372,11.6729 26.3132,11.5328C26.2893,11.3927 26.2392,11.1931 26.057,11.0453C25.8414,10.8703 25.5085,10.8334 25.3595,10.8361C24.6825,10.848 23.6438,11.2092 18.645,13.2883Z" fill="#000000" fill-rule="evenOdd"/>
</svg>