<?xml version="1.0" encoding="UTF-8" standalone="no"?><svg xmlns:android="http://schemas.android.com/apk/res/android" height="24" width="24" xmlns="http://www.w3.org/2000/svg">
  <path android:strokeLineCap="round" android:strokeLineJoin="round" d="M9,11C11.2091,11 13,9.2091 13,7C13,4.7909 11.2091,3 9,3C6.7909,3 5,4.7909 5,7C5,9.2091 6.7909,11 9,11Z" fill="#000000" fill-opacity="0.0" stroke="#000000" stroke-width="2"/>
  <path android:strokeLineCap="round" android:strokeLineJoin="round" d="M3,21V19C3,17.9391 3.4214,16.9217 4.1716,16.1716C4.9217,15.4214 5.9391,15 7,15H11C12.0609,15 13.0783,15.4214 13.8284,16.1716C14.5786,16.9217 15,17.9391 15,19V21" fill="#000000" fill-opacity="0.0" stroke="#000000" stroke-width="2"/>
  <path android:strokeLineCap="round" android:strokeLineJoin="round" d="M19,7V10" fill="#000000" fill-opacity="0.0" stroke="#000000" stroke-width="2"/>
  <path android:strokeLineCap="round" android:strokeLineJoin="round" d="M19,14V14.01" fill="#000000" fill-opacity="0.0" stroke="#000000" stroke-width="2"/>
</svg>