<?xml version="1.0" encoding="UTF-8" standalone="no"?><svg xmlns:android="http://schemas.android.com/apk/res/android" height="24" width="24" xmlns="http://www.w3.org/2000/svg">
  <path android:strokeLineCap="round" android:strokeLineJoin="round" d="M17,21V19C17,17.9391 16.5786,16.9217 15.8284,16.1716C15.0783,15.4214 14.0609,15 13,15H5C3.9391,15 2.9217,15.4214 2.1716,16.1716C1.4214,16.9217 1,17.9391 1,19V21" fill="#000000" fill-opacity="0.0" stroke="#000000" stroke-width="2"/>
  <path android:strokeLineCap="round" android:strokeLineJoin="round" d="M9,11C11.2091,11 13,9.2091 13,7C13,4.7909 11.2091,3 9,3C6.7909,3 5,4.7909 5,7C5,9.2091 6.7909,11 9,11Z" fill="#000000" fill-opacity="0.0" stroke="#000000" stroke-width="2"/>
  <path android:strokeLineCap="round" android:strokeLineJoin="round" d="M23,21V19C22.9993,18.1137 22.7044,17.2528 22.1614,16.5523C21.6184,15.8519 20.8581,15.3516 20,15.13" fill="#000000" fill-opacity="0.0" stroke="#000000" stroke-width="2"/>
  <path android:strokeLineCap="round" android:strokeLineJoin="round" d="M16,3.13C16.8604,3.3503 17.623,3.8507 18.1676,4.5523C18.7122,5.2539 19.0078,6.1168 19.0078,7.005C19.0078,7.8932 18.7122,8.7561 18.1676,9.4577C17.623,10.1593 16.8604,10.6597 16,10.88" fill="#000000" fill-opacity="0.0" stroke="#000000" stroke-width="2"/>
</svg>