<?xml version="1.0" encoding="UTF-8" standalone="no"?><svg xmlns:android="http://schemas.android.com/apk/res/android" height="24" width="24" xmlns="http://www.w3.org/2000/svg">
  <path android:strokeLineCap="round" android:strokeLineJoin="round" d="M15,10L19.553,7.724C19.7054,7.6478 19.8748,7.6119 20.045,7.6195C20.2152,7.6272 20.3806,7.6782 20.5256,7.7678C20.6706,7.8574 20.7902,7.9825 20.8733,8.1313C20.9563,8.2801 20.9999,8.4476 21,8.618V15.382C20.9999,15.5524 20.9563,15.7199 20.8733,15.8687C20.7902,16.0175 20.6706,16.1426 20.5256,16.2322C20.3806,16.3218 20.2152,16.3728 20.045,16.3805C19.8748,16.3881 19.7054,16.3522 19.553,16.276L15,14V10Z" fill="#000000" fill-opacity="0.0" stroke="#000000" stroke-width="2"/>
  <path android:strokeLineCap="round" android:strokeLineJoin="round" d="M13,6H5C3.8954,6 3,6.8954 3,8V16C3,17.1046 3.8954,18 5,18H13C14.1046,18 15,17.1046 15,16V8C15,6.8954 14.1046,6 13,6Z" fill="#000000" fill-opacity="0.0" stroke="#000000" stroke-width="2"/>
</svg>