<svg width="16" height="16" viewBox="0 0 16 16" fill="none" xmlns="http://www.w3.org/2000/svg">
<path d="M2.66663 8V6C2.66663 5.46957 2.87734 4.96086 3.25241 4.58579C3.62749 4.21071 4.13619 4 4.66663 4H13.3333M13.3333 4L11.3333 2M13.3333 4L11.3333 6" stroke="black" stroke-width="1.5" stroke-linecap="round" stroke-linejoin="round"/>
<path d="M7 12H2.66663M2.66663 12L4.66663 14M2.66663 12L4.66663 10" stroke="black" stroke-width="1.5" stroke-linecap="round" stroke-linejoin="round"/>
<path d="M10.6667 10.5V9.33333C10.6667 8.97971 10.8072 8.64057 11.0572 8.39052C11.3073 8.14048 11.6464 8 12 8C12.3536 8 12.6928 8.14048 12.9428 8.39052C13.1929 8.64057 13.3334 8.97971 13.3334 9.33333V10.5M10.1667 10.5H13.8333C14.2015 10.5 14.5 10.7985 14.5 11.1667V13.3333C14.5 13.7015 14.2015 14 13.8333 14H12H10.1667C9.79848 14 9.5 13.7015 9.5 13.3333V11.1667C9.5 10.7985 9.79848 10.5 10.1667 10.5Z" stroke="black" stroke-width="1.5" stroke-linecap="round" stroke-linejoin="round"/>
</svg>
