<svg width="16" height="16" viewBox="0 0 16 16" fill="none" xmlns="http://www.w3.org/2000/svg">
<path d="M5.33337 7V4.66667C5.33337 3.95942 5.61433 3.28115 6.11442 2.78105C6.61452 2.28095 7.2928 2 8.00004 2C8.70729 2 9.38556 2.28095 9.88566 2.78105C10.3858 3.28115 10.6667 3.95942 10.6667 4.66667V7M4.33333 7H11.6667C12.403 7 13 7.59695 13 8.33333V12.6667C13 13.403 12.403 14 11.6667 14H8H4.33333C3.59695 14 3 13.403 3 12.6667V8.33333C3 7.59695 3.59695 7 4.33333 7Z" stroke="black" stroke-width="1.5" stroke-linecap="round" stroke-linejoin="round"/>
<circle cx="8" cy="10.5" r="1" fill="black"/>
</svg>
