<svg width="16" height="16" viewBox="0 0 16 16" fill="none" xmlns="http://www.w3.org/2000/svg">
<path d="M11.5714 7H4.42857C3.63959 7 3 7.6268 3 8.4V12.6C3 13.3732 3.63959 14 4.42857 14H11.5714C12.3604 14 13 13.3732 13 12.6V8.4C13 7.6268 12.3604 7 11.5714 7Z" stroke="black" stroke-width="1.5" stroke-linecap="round" stroke-linejoin="round"/>
<circle cx="8" cy="10.5" r="1" fill="black"/>
<path d="M5.33337 7V4C5.33337 3.29276 5.61433 2.61448 6.11442 2.11438C6.61452 1.61429 7.2928 1.33334 8.00004 1.33334C8.70728 1.33334 9.38556 1.61429 9.88566 2.11438C10.3858 2.61448 10.6667 3.29276 10.6667 4" stroke="black" stroke-width="1.5" stroke-linecap="round" stroke-linejoin="round"/>
</svg>
