<svg width="16" height="16" viewBox="0 0 16 16" fill="none" xmlns="http://www.w3.org/2000/svg">
<path d="M8 8.5C8.82843 8.5 9.5 7.82843 9.5 7C9.5 6.17157 8.82843 5.5 8 5.5C7.17157 5.5 6.5 6.17157 6.5 7C6.5 7.82843 7.17157 8.5 8 8.5Z" fill="black"/>
<path d="M11.7713 11.1047L8.94263 13.9333C8.69262 14.1831 8.35368 14.3234 8.0003 14.3234C7.64691 14.3234 7.30797 14.1831 7.05796 13.9333L4.22863 11.1047C3.48278 10.3588 2.97485 9.40846 2.76909 8.3739C2.56332 7.33935 2.66896 6.26701 3.07263 5.29248C3.47631 4.31796 4.15989 3.48502 5.03695 2.899C5.91401 2.31298 6.94514 2.00019 7.99996 2.00019C9.05478 2.00019 10.0859 2.31298 10.963 2.899C11.84 3.48502 12.5236 4.31796 12.9273 5.29248C13.331 6.26701 13.4366 7.33935 13.2308 8.3739C13.0251 9.40846 12.5171 10.3588 11.7713 11.1047V11.1047Z" stroke="black" stroke-width="1.5" stroke-linecap="round" stroke-linejoin="round"/>
</svg>
