<svg width="16" height="16" viewBox="0 0 16 16" fill="none" xmlns="http://www.w3.org/2000/svg">
<path d="M7.99996 13.3333L5.99996 11.3333H4.66663C4.13619 11.3333 3.62749 11.1226 3.25241 10.7475C2.87734 10.3725 2.66663 9.86377 2.66663 9.33334V5.33334C2.66663 4.8029 2.87734 4.2942 3.25241 3.91912C3.62749 3.54405 4.13619 3.33334 4.66663 3.33334H11.3333C11.8637 3.33334 12.3724 3.54405 12.7475 3.91912C13.1226 4.2942 13.3333 4.8029 13.3333 5.33334V9.33334C13.3333 9.86377 13.1226 10.3725 12.7475 10.7475C12.3724 11.1226 11.8637 11.3333 11.3333 11.3333H9.99996L7.99996 13.3333Z" stroke="black" stroke-width="1.5" stroke-linecap="round" stroke-linejoin="round"/>
<path d="M5.33337 6H10.6667" stroke="black" stroke-width="1.5" stroke-linecap="round" stroke-linejoin="round"/>
<path d="M5.33337 8.66666H9.33337" stroke="black" stroke-width="1.5" stroke-linecap="round" stroke-linejoin="round"/>
</svg>
