<svg width="16" height="16" viewBox="0 0 16 16" fill="none" xmlns="http://www.w3.org/2000/svg">
<path d="M2 13.3333L2.86667 10.7333C2.11763 9.62552 1.84666 8.31361 2.10415 7.04154C2.36163 5.76946 3.13004 4.62378 4.26651 3.81752C5.40298 3.01125 6.83017 2.59927 8.28273 2.65816C9.73528 2.71706 11.1143 3.24282 12.1635 4.13771C13.2127 5.03259 13.8606 6.2357 13.9867 7.52333C14.1128 8.81095 13.7086 10.0955 12.8492 11.1381C11.9899 12.1807 10.7338 12.9104 9.31453 13.1916C7.89529 13.4727 6.40947 13.2862 5.13333 12.6667L2 13.3333" stroke="black" stroke-width="1.5" stroke-linecap="round" stroke-linejoin="round"/>
<path d="M8 8V8.00667" stroke="black" stroke-width="1.5" stroke-linecap="round" stroke-linejoin="round"/>
<path d="M5.33337 8V8.00667" stroke="black" stroke-width="1.5" stroke-linecap="round" stroke-linejoin="round"/>
<path d="M10.6666 8V8.00667" stroke="black" stroke-width="1.5" stroke-linecap="round" stroke-linejoin="round"/>
</svg>
