<svg width="24" height="24" viewBox="0 0 24 24" fill="none" xmlns="http://www.w3.org/2000/svg">
<path d="M12 3C16.9707 3 21 7.0293 21 12C21 15.717 18.7464 18.9084 15.5307 20.2809L13.2645 14.3859C13.797 14.1035 14.2198 13.651 14.4653 13.1006C14.7109 12.5501 14.7652 11.9333 14.6196 11.3483C14.474 10.7634 14.1369 10.244 13.6619 9.87291C13.1869 9.5018 12.6014 9.30031 11.9986 9.30052C11.3959 9.30074 10.8105 9.50265 10.3358 9.8741C9.86105 10.2455 9.52427 10.7652 9.37909 11.3502C9.2339 11.9352 9.28866 12.552 9.53464 13.1023C9.78061 13.6526 10.2037 14.1048 10.7364 14.3868L8.4702 20.2818C6.84724 19.5892 5.46354 18.435 4.49102 16.9626C3.5185 15.4902 3.00002 13.7646 3 12C3 7.0293 7.0293 3 12 3Z" stroke="black" stroke-width="2" stroke-miterlimit="16" stroke-linejoin="round"/>
</svg>
