<svg width="24" height="24" viewBox="0 0 24 24" fill="none" xmlns="http://www.w3.org/2000/svg">
<path d="M15 7L8.50001 13.5C8.10218 13.8978 7.87869 14.4374 7.87869 15C7.87869 15.5626 8.10218 16.1022 8.50001 16.5C8.89783 16.8978 9.4374 17.1213 10 17.1213C10.5626 17.1213 11.1022 16.8978 11.5 16.5L18 10C18.7957 9.20435 19.2427 8.12522 19.2427 7C19.2427 5.87478 18.7957 4.79565 18 4C17.2044 3.20435 16.1252 2.75736 15 2.75736C13.8748 2.75736 12.7957 3.20435 12 4L5.50001 10.5C4.30653 11.6935 3.63605 13.3122 3.63605 15C3.63605 16.6878 4.30653 18.3065 5.50001 19.5C6.69348 20.6935 8.31218 21.364 10 21.364C11.6878 21.364 13.3065 20.6935 14.5 19.5L21 13" stroke="black" stroke-width="2" stroke-linecap="round" stroke-linejoin="round"/>
</svg>
