<svg width="24" height="24" viewBox="0 0 24 24" fill="none" xmlns="http://www.w3.org/2000/svg">
<path d="M13 8C12.4477 8 12 8.44772 12 9C12 9.55228 12.4477 10 13 10V8ZM13.01 10C13.5623 10 14.01 9.55228 14.01 9C14.01 8.44772 13.5623 8 13.01 8V10ZM3.23824 14.4703C2.88044 14.891 2.93143 15.5221 3.35214 15.8799C3.77285 16.2377 4.40395 16.1867 4.76176 15.766L3.23824 14.4703ZM7 11.5907L6.25072 10.9285C6.24651 10.9332 6.24235 10.938 6.23824 10.9429L7 11.5907ZM8.125 11V10V11ZM9.25 11.5907L10.0118 10.9429C10.0076 10.938 10.0035 10.9332 9.99928 10.9285L9.25 11.5907ZM12.2382 16.6479C12.596 17.0686 13.2272 17.1196 13.6479 16.7618C14.0686 16.404 14.1196 15.7728 13.7618 15.3521L12.2382 16.6479ZM11.3315 13.5072C10.9207 13.8764 10.8871 14.5087 11.2563 14.9194C11.6255 15.3302 12.2578 15.3638 12.6685 14.9946L11.3315 13.5072ZM12.8333 13.5018L12.1791 12.7455C12.1743 12.7496 12.1695 12.7539 12.1648 12.7581L12.8333 13.5018ZM14.0833 13V14V13ZM15.3333 13.5018L16.0019 12.7581C15.9971 12.7539 15.9923 12.7496 15.9875 12.7455L15.3333 13.5018ZM16.3315 15.7437C16.7422 16.1129 17.3745 16.0793 17.7437 15.6685C18.1129 15.2578 18.0793 14.6255 17.6685 14.2563L16.3315 15.7437ZM13 10H13.01V8H13V10ZM7 6H14V4H7V6ZM16 8V16H18V8H16ZM14 18H7V20H14V18ZM5 16V8H3V16H5ZM7 18C5.89543 18 5 17.1046 5 16H3C3 18.2091 4.79086 20 7 20V18ZM16 16C16 17.1046 15.1046 18 14 18V20C16.2091 20 18 18.2091 18 16H16ZM14 6C15.1046 6 16 6.89543 16 8H18C18 5.79086 16.2091 4 14 4V6ZM7 4C4.79086 4 3 5.79086 3 8H5C5 6.89543 5.89543 6 7 6V4ZM14 6H17V4H14V6ZM19 8V16H21V8H19ZM17 18H14V20H17V18ZM19 16C19 17.1046 18.1046 18 17 18V20C19.2091 20 21 18.2091 21 16H19ZM17 6C18.1046 6 19 6.89543 19 8H21C21 5.79086 19.2091 4 17 4V6ZM4.76176 15.766L7.76176 12.2386L6.23824 10.9429L3.23824 14.4703L4.76176 15.766ZM7.74928 12.253C7.96349 12.0106 8.09857 12 8.125 12V10C7.36152 10 6.7206 10.3968 6.25072 10.9285L7.74928 12.253ZM8.125 12C8.15143 12 8.28651 12.0106 8.50072 12.253L9.99928 10.9285C9.5294 10.3968 8.88848 10 8.125 10V12ZM8.48824 12.2386L12.2382 16.6479L13.7618 15.3521L10.0118 10.9429L8.48824 12.2386ZM12.6685 14.9946L13.5019 14.2455L12.1648 12.7581L11.3315 13.5072L12.6685 14.9946ZM13.4875 14.2581C13.7139 14.0623 13.9194 14 14.0833 14V12C13.3696 12 12.7129 12.2838 12.1791 12.7455L13.4875 14.2581ZM14.0833 14C14.2473 14 14.4528 14.0623 14.6791 14.2581L15.9875 12.7455C15.4538 12.2838 14.7971 12 14.0833 12V14ZM14.6648 14.2455L16.3315 15.7437L17.6685 14.2563L16.0019 12.7581L14.6648 14.2455Z" fill="black"/>
</svg>
