<svg width="24" height="24" viewBox="0 0 24 24" fill="none" xmlns="http://www.w3.org/2000/svg">
<path d="M9.99995 14L20.9999 3M9.99995 14L13.4999 21C13.5438 21.0957 13.6143 21.1769 13.7029 21.2338C13.7915 21.2906 13.8946 21.3209 13.9999 21.3209C14.1053 21.3209 14.2084 21.2906 14.297 21.2338C14.3856 21.1769 14.4561 21.0957 14.4999 21M9.99995 14L2.99995 10.5C2.90421 10.4561 2.82307 10.3857 2.76619 10.2971C2.70931 10.2084 2.67908 10.1053 2.67908 10C2.67908 9.89468 2.70931 9.79158 2.76619 9.70295C2.82307 9.61431 2.90421 9.54387 2.99995 9.5L20.9999 3M20.9999 3L19 9" stroke="black" stroke-width="2" stroke-linecap="round" stroke-linejoin="round"/>
<path fill-rule="evenodd" clip-rule="evenodd" d="M18.5 20C20.9853 20 23 17.9853 23 15.5C23 13.0147 20.9853 11 18.5 11C16.0147 11 14 13.0147 14 15.5C14 17.9853 16.0147 20 18.5 20ZM18.5 13C18.7761 13 19 13.2239 19 13.5V15H20.5C20.7761 15 21 15.2239 21 15.5C21 15.7761 20.7761 16 20.5 16H19V17.5C19 17.7761 18.7761 18 18.5 18C18.2239 18 18 17.7761 18 17.5V16H16.5C16.2239 16 16 15.7761 16 15.5C16 15.2239 16.2239 15 16.5 15H18V13.5C18 13.2239 18.2239 13 18.5 13Z" fill="black"/>
</svg>
