<svg width="24" height="24" viewBox="0 0 24 24" fill="none" xmlns="http://www.w3.org/2000/svg">
<path d="M8.29289 6.29289C7.90237 6.68342 7.90237 7.31658 8.29289 7.70711C8.68342 8.09763 9.31658 8.09763 9.70711 7.70711L8.29289 6.29289ZM12 4L12.7071 3.29289C12.3166 2.90237 11.6834 2.90237 11.2929 3.29289L12 4ZM14.2929 7.70711C14.6834 8.09763 15.3166 8.09763 15.7071 7.70711C16.0976 7.31658 16.0976 6.68342 15.7071 6.29289L14.2929 7.70711ZM11 14C11 14.5523 11.4477 15 12 15C12.5523 15 13 14.5523 13 14H11ZM8 12C8.55228 12 9 11.5523 9 11C9 10.4477 8.55228 10 8 10V12ZM16 10C15.4477 10 15 10.4477 15 11C15 11.5523 15.4477 12 16 12V10ZM9.70711 7.70711L12.7071 4.70711L11.2929 3.29289L8.29289 6.29289L9.70711 7.70711ZM11.2929 4.70711L14.2929 7.70711L15.7071 6.29289L12.7071 3.29289L11.2929 4.70711ZM11 4V14H13V4H11ZM18 13V19H20V13H18ZM17 20H7V22H17V20ZM6 19V13H4V19H6ZM7 12H8V10H7V12ZM16 12H17V10H16V12ZM7 20C6.44772 20 6 19.5523 6 19H4C4 20.6569 5.34315 22 7 22V20ZM18 19C18 19.5523 17.5523 20 17 20V22C18.6569 22 20 20.6569 20 19H18ZM20 13C20 11.3431 18.6569 10 17 10V12C17.5523 12 18 12.4477 18 13H20ZM6 13C6 12.4477 6.44772 12 7 12V10C5.34315 10 4 11.3431 4 13H6Z" fill="black"/>
</svg>
