<svg width="24" height="24" viewBox="0 0 24 24" fill="none" xmlns="http://www.w3.org/2000/svg">
<path d="M19 4H5C4.44772 4 4 4.44772 4 5V7C4 7.55228 4.44772 8 5 8H19C19.5523 8 20 7.55228 20 7V5C20 4.44772 19.5523 4 19 4Z" stroke="black" stroke-width="2" stroke-linecap="round" stroke-linejoin="round"/>
<path d="M9 12H5C4.44772 12 4 12.4477 4 13V19C4 19.5523 4.44772 20 5 20H9C9.55228 20 10 19.5523 10 19V13C10 12.4477 9.55228 12 9 12Z" stroke="black" stroke-width="2" stroke-linecap="round" stroke-linejoin="round"/>
<path d="M14 12H20" stroke="black" stroke-width="2" stroke-linecap="round" stroke-linejoin="round"/>
<path d="M14 16H20" stroke="black" stroke-width="2" stroke-linecap="round" stroke-linejoin="round"/>
<path d="M14 20H20" stroke="black" stroke-width="2" stroke-linecap="round" stroke-linejoin="round"/>
</svg>
