<svg width="24" height="24" viewBox="0 0 24 24" fill="none" xmlns="http://www.w3.org/2000/svg">
<path d="M3 3L21 21" stroke="black" stroke-width="2" stroke-linecap="round" stroke-linejoin="round"/>
<path d="M15 11V10L19.553 7.724C19.7054 7.64783 19.8748 7.61188 20.045 7.61954C20.2152 7.62721 20.3806 7.67824 20.5256 7.7678C20.6706 7.85736 20.7902 7.98247 20.8733 8.13127C20.9563 8.28006 20.9999 8.44761 21 8.618V15.382C21.0001 15.5903 20.935 15.7935 20.814 15.9631C20.693 16.1327 20.522 16.2603 20.325 16.328" stroke="black" stroke-width="2" stroke-linecap="round" stroke-linejoin="round"/>
<path d="M10 6H13C13.5304 6 14.0391 6.21071 14.4142 6.58579C14.7893 6.96086 15 7.46957 15 8V11M15 15V16C15 16.5304 14.7893 17.0391 14.4142 17.4142C14.0391 17.7893 13.5304 18 13 18H5C4.46957 18 3.96086 17.7893 3.58579 17.4142C3.21071 17.0391 3 16.5304 3 16V8C3 7.46957 3.21071 6.96086 3.58579 6.58579C3.96086 6.21071 4.46957 6 5 6H6" stroke="black" stroke-width="2" stroke-linecap="round" stroke-linejoin="round"/>
</svg>
