<svg width="24" height="24" viewBox="0 0 24 24" fill="none" xmlns="http://www.w3.org/2000/svg">
<path d="M15 10L19.553 7.724C19.7054 7.64783 19.8748 7.61188 20.045 7.61954C20.2152 7.62721 20.3806 7.67824 20.5256 7.7678C20.6706 7.85736 20.7902 7.98247 20.8733 8.13127C20.9563 8.28006 20.9999 8.44761 21 8.618V15.382C20.9999 15.5524 20.9563 15.7199 20.8733 15.8687C20.7902 16.0175 20.6706 16.1426 20.5256 16.2322C20.3806 16.3218 20.2152 16.3728 20.045 16.3805C19.8748 16.3881 19.7054 16.3522 19.553 16.276L15 14V10Z" stroke="black" stroke-width="2" stroke-linecap="round" stroke-linejoin="round"/>
<path d="M13 6H5C3.89543 6 3 6.89543 3 8V16C3 17.1046 3.89543 18 5 18H13C14.1046 18 15 17.1046 15 16V8C15 6.89543 14.1046 6 13 6Z" stroke="black" stroke-width="2" stroke-linecap="round" stroke-linejoin="round"/>
</svg>
